<svg width="18" height="18" viewBox="0 0 18 18" fill="none" xmlns="http://www.w3.org/2000/svg">
<g clip-path="url(#clip0_835_1924)">
<path d="M7.91849 15.1685C8.08066 15.1487 8.26648 15.1001 8.43076 14.9929C9.52755 15.099 10.7414 14.8656 11.8038 14.4617C12.888 14.0495 13.8443 13.4484 14.3664 12.8142L14.3666 12.814C14.6352 12.4867 14.6257 12.0175 14.3435 11.7002L14.3194 11.6731H16.6996C15.5911 14.8579 12.5579 17.1501 9.00001 17.1501C6.65421 17.1501 4.48257 16.1734 2.9377 14.4477L2.88515 14.3841L3.62879 14.4824L3.82733 14.5086L3.85331 14.3101L3.89231 14.0121L3.91608 13.8305L3.73728 13.7908L1.54367 13.3047L1.26013 13.2419L1.30254 13.5292L1.60515 15.5793L1.62887 15.74L1.79103 15.7497L2.09103 15.7677L2.29102 15.7797L2.30267 15.5797L2.346 14.8353C2.36304 14.8548 2.38014 14.8743 2.39732 14.8936L2.40259 14.9015L2.41364 14.9126C4.09139 16.7885 6.45203 17.8501 9.00001 17.8501C13.8805 17.8501 17.85 13.8806 17.85 9.0001C17.85 7.86795 17.6393 6.76478 17.2228 5.72098L17.2225 5.72026C17.169 5.58771 17.0407 5.5011 16.898 5.5011H12.8606L9.74472 4.00187L9.74399 4.00153C9.6488 3.95619 9.53255 3.95398 9.43255 4.00674L6.51083 5.5011H1.64148C2.9529 2.75303 5.75858 0.850098 9.00001 0.850098C11.2948 0.850098 13.4484 1.8006 14.9904 3.47492L15.033 3.52458L14.2877 3.43939L14.089 3.41667L14.0663 3.61543L14.0323 3.91343L14.0107 4.10299L14.199 4.13352L16.063 4.4357L16.295 4.47332V4.23828V2.3411V2.14958L16.1037 2.14128L15.8037 2.12829L15.6035 2.11961L15.5952 2.31984L15.5644 3.06529C15.5477 3.04681 15.531 3.02839 15.5143 3.01004L15.5057 2.99991L15.5003 2.99356L15.4944 2.98767C15.4903 2.98356 15.4866 2.98015 15.4837 2.97754C13.8113 1.17348 11.4803 0.150098 9.00001 0.150098C4.11955 0.150098 0.150006 4.11964 0.150006 9.0001C0.150006 9.82137 0.26251 10.6347 0.484597 11.4177L0.484701 11.418C0.493992 11.4506 0.507984 11.4814 0.526548 11.5099C0.590225 11.6112 0.701647 11.6731 0.822006 11.6731H3.12001C3.17159 11.7998 3.25645 11.9132 3.37016 11.9995L3.3705 11.9997L7.3655 15.0157L7.48601 14.8561L7.36551 15.0157C7.50021 15.1174 7.66107 15.1741 7.82801 15.1741C7.85584 15.1741 7.88576 15.1728 7.91849 15.1685ZM7.91849 15.1685C7.91802 15.1685 7.91755 15.1686 7.91707 15.1686L7.89301 14.9701L7.92003 15.1683C7.91952 15.1683 7.91901 15.1684 7.91849 15.1685ZM7.83081 14.4737L7.83153 14.4736C7.98791 14.4543 8.05856 14.4073 8.09466 14.3593C8.13358 14.3075 8.16438 14.2125 8.15058 14.0313L8.35001 14.0161L8.15061 14.0316C8.14858 14.0056 8.13644 13.9847 8.12249 13.9732L8.12177 13.9726L4.32877 10.8036L4.32808 10.803C4.31355 10.7907 4.29434 10.7841 4.27701 10.7841L7.83081 14.4737ZM7.83081 14.4737C7.82615 14.4743 7.80922 14.4732 7.78922 14.4578L7.78751 14.4565M7.83081 14.4737L7.78751 14.4565M7.78751 14.4565L3.79251 11.4405L3.79228 11.4403M7.78751 14.4565L3.79228 11.4403M3.79228 11.4403C3.76853 11.4224 3.75469 11.3871 3.76565 11.3503L3.79228 11.4403ZM16.9073 10.9721H13.6959L9.40951 6.14825L9.40914 6.14783C9.31188 6.039 9.15616 6.00092 9.01931 6.05517C9.0193 6.05517 9.01929 6.05518 9.01928 6.05518L6.44831 7.07417L6.44773 7.0744C6.39598 7.0951 6.34469 7.10192 6.29942 7.09794C6.19154 7.08748 6.12354 7.05153 6.07945 7.00482L6.07931 7.00467C6.01194 6.93343 5.97328 6.80154 6.00847 6.65381C6.02603 6.5811 6.08276 6.50534 6.17896 6.45622L6.17909 6.45615L9.59773 4.70735L12.6272 6.16482C12.676 6.18884 12.7282 6.2001 12.78 6.2001H16.6565C16.9838 7.09477 17.15 8.03465 17.15 8.9991C17.15 9.67981 17.0652 10.3395 16.9073 10.9721ZM5.45141 6.2011C5.39501 6.28937 5.35281 6.38648 5.32767 6.48983L5.32757 6.49025C5.24065 6.85103 5.32381 7.22571 5.57076 7.48659L5.57103 7.48687C5.74248 7.66728 5.97443 7.77019 6.23383 7.79518L6.23389 7.79518C6.39284 7.81044 6.55551 7.78477 6.70651 7.7251L6.70666 7.72504L9.05051 6.7966L13.8208 12.1642C13.8209 12.1643 13.821 12.1644 13.8211 12.1645C13.8738 12.2247 13.8744 12.3097 13.8256 12.369C13.4118 12.8712 12.5986 13.3943 11.6262 13.7739C10.7372 14.1209 9.74069 14.3379 8.83831 14.3163C8.85308 14.2131 8.85623 14.1004 8.8464 13.9775C8.84639 13.9774 8.84638 13.9772 8.84637 13.9771L8.64701 13.9931L5.45141 6.2011ZM15.4766 2.97146C15.4755 2.9706 15.4766 2.9715 15.478 2.97268L15.4766 2.97146ZM3.76566 11.3503C3.84965 11.0689 4.00709 10.8919 4.25535 10.7875L3.76566 11.3503Z" fill="#4D4D4D" stroke="#4D4D4D" stroke-width="0.4"/>
</g>
<defs>
<clipPath id="clip0_835_1924">
<rect width="18" height="18" fill="white"/>
</clipPath>
</defs>
</svg>
