<svg width="22" height="22" viewBox="0 0 22 22" fill="none" xmlns="http://www.w3.org/2000/svg">
<g clip-path="url(#clip0_835_1953)">
<mask id="path-1-outside-1_835_1953" maskUnits="userSpaceOnUse" x="4.45355" y="4.59644" width="13" height="13" fill="black">
<rect fill="white" x="4.45355" y="4.59644" width="13" height="13"/>
<path d="M15.3047 14.5895C16.0906 13.6118 16.522 12.3895 16.522 11.1294C16.522 11.0903 16.522 11.0512 16.5196 11.0207C16.4963 9.74955 16.0331 8.52732 15.2142 7.55932L15.2167 7.55688L15.1067 7.43466C14.0666 6.27721 12.5816 5.60744 11.0183 5.59644C11.0159 5.59644 11.0122 5.59644 11.0098 5.59644H11.0024C11.0012 5.59644 11.0012 5.59644 11 5.59644H10.9878C10.5954 5.59644 10.2068 5.63799 9.82911 5.71988C9.60666 5.76755 9.38789 5.8311 9.174 5.90566C8.47855 6.14766 7.83444 6.5241 7.282 7.02155C7.13777 7.15232 6.99966 7.29044 6.86889 7.43588L6.75889 7.5581L6.76133 7.56055C5.94244 8.52855 5.47922 9.75077 5.456 11.0133C5.45355 11.0512 5.45355 11.0903 5.45355 11.1307C5.45355 12.3908 5.885 13.613 6.67089 14.5908L6.66844 14.5932L6.76866 14.7118C6.83222 14.7875 6.89822 14.8609 6.96666 14.9318C6.99233 14.9587 7.01922 14.9843 7.04489 15.01C7.08766 15.054 7.13044 15.098 7.17444 15.1395C7.205 15.1689 7.238 15.197 7.26855 15.2251C7.30889 15.2618 7.34922 15.2997 7.392 15.3363C7.42622 15.3657 7.46166 15.3925 7.49711 15.4219C7.53744 15.4549 7.57777 15.4891 7.61933 15.5209C7.656 15.549 7.69389 15.5747 7.73055 15.6028C7.77211 15.6333 7.81244 15.6639 7.85522 15.692C7.89311 15.7189 7.93344 15.7433 7.97133 15.7678C8.01411 15.7959 8.05566 15.824 8.09844 15.8497C8.13877 15.8741 8.17911 15.8961 8.21944 15.9193C8.26222 15.9438 8.30622 15.9707 8.35022 15.9939C8.39177 16.0159 8.43333 16.0367 8.47489 16.0587C8.51889 16.0807 8.56289 16.1039 8.60811 16.1259C8.65089 16.1467 8.69366 16.165 8.73644 16.1833C8.78166 16.2029 8.82689 16.2237 8.87211 16.2432C8.91611 16.2615 8.96011 16.2774 9.00411 16.2945C9.05055 16.3117 9.09577 16.33 9.14222 16.3471C9.18744 16.363 9.23266 16.3764 9.27789 16.3911C9.32433 16.4058 9.372 16.4217 9.41844 16.4363C9.46366 16.4498 9.51011 16.462 9.55533 16.4742C9.603 16.4864 9.65066 16.4999 9.69955 16.5121C9.746 16.5231 9.79244 16.5329 9.83889 16.5427C9.88777 16.5524 9.93666 16.5634 9.98555 16.572C10.032 16.5805 10.0797 16.5879 10.1261 16.5952C10.175 16.6025 10.2251 16.6111 10.2752 16.6172C10.3229 16.6233 10.3693 16.6282 10.417 16.6331C10.4671 16.638 10.5172 16.6441 10.5673 16.6478C10.615 16.6514 10.6627 16.6539 10.7103 16.6563C10.747 16.6575 10.7824 16.6612 10.8179 16.6624L10.9939 16.6673C10.9951 16.6673 10.9976 16.6673 10.9988 16.6673H11.0012C11.0232 16.6673 11.0464 16.6661 11.0684 16.6637C11.1161 16.6624 11.1638 16.66 11.2127 16.6575C11.2628 16.6551 11.3129 16.6551 11.363 16.6514C11.4107 16.6478 11.4583 16.6429 11.5048 16.638C11.5561 16.6331 11.6074 16.6294 11.6576 16.6233C11.7028 16.6172 11.748 16.6099 11.7932 16.6025C11.8458 16.5952 11.8971 16.5879 11.9497 16.5793C11.9924 16.572 12.034 16.5622 12.0768 16.5537C12.1306 16.5427 12.1843 16.5329 12.2381 16.5207C12.2784 16.5109 12.3176 16.4999 12.3579 16.4901C12.4129 16.4754 12.4679 16.4632 12.5229 16.4473C12.5596 16.4363 12.5962 16.4241 12.6341 16.4119C12.6903 16.3948 12.7478 16.3777 12.8028 16.3581C12.8346 16.3471 12.8651 16.3337 12.8969 16.3227C12.9568 16.3007 13.0179 16.2787 13.0766 16.2542C13.1022 16.2432 13.1279 16.231 13.1548 16.22C13.2183 16.1931 13.2819 16.1662 13.3454 16.1369C13.3674 16.1259 13.3894 16.1149 13.4114 16.1039C13.4774 16.0721 13.5422 16.0403 13.607 16.0049C13.6241 15.9963 13.64 15.9853 13.6559 15.9768C13.7243 15.9389 13.794 15.8998 13.8612 15.8594C13.8722 15.8533 13.882 15.846 13.8918 15.8399C13.9651 15.7947 14.0372 15.7494 14.1081 15.7005C14.113 15.6969 14.1179 15.6932 14.1216 15.6908C14.52 15.417 14.8842 15.0894 15.2044 14.7142C15.2057 14.713 15.2057 14.7118 15.2069 14.7118L15.3059 14.5957L15.3047 14.5895ZM14.6899 14.7313C14.6569 14.7655 14.6227 14.7998 14.5884 14.8328C14.5579 14.8621 14.5261 14.8927 14.4956 14.9208C14.4601 14.9538 14.4247 14.9855 14.388 15.0173C14.3562 15.0454 14.3244 15.0723 14.2927 15.0992C14.2548 15.131 14.2169 15.1615 14.1778 15.1921C14.146 15.2178 14.113 15.2422 14.0812 15.2667C14.0409 15.2972 14.0006 15.3265 13.959 15.3547C13.9272 15.3767 13.8954 15.3999 13.8624 15.4219C13.8184 15.4512 13.7744 15.4793 13.7304 15.5074C13.6999 15.527 13.6681 15.5465 13.6363 15.5649C13.5887 15.593 13.541 15.6199 13.4921 15.6468C13.4628 15.6627 13.4334 15.6798 13.4041 15.6957C13.3516 15.7238 13.299 15.7494 13.2452 15.7751C13.2183 15.7885 13.1914 15.802 13.1646 15.8142C13.1071 15.8411 13.0484 15.8668 12.9898 15.8912C12.9666 15.901 12.9433 15.9108 12.9201 15.9205C12.8553 15.9462 12.7906 15.9707 12.7246 15.9939C12.7062 16 12.6879 16.0073 12.6683 16.0147C12.5962 16.0391 12.5241 16.0623 12.4508 16.0831C12.4373 16.0868 12.4251 16.0917 12.4117 16.0953C12.331 16.1185 12.2503 16.1393 12.1684 16.1577C12.1623 16.1589 12.155 16.1613 12.1489 16.1625C12.089 16.176 12.0291 16.187 11.9692 16.1992C12.595 15.6614 13.2452 14.7105 13.6754 13.6399C14.102 13.9002 14.487 14.2192 14.8231 14.5908C14.8097 14.6067 14.795 14.6225 14.7816 14.6372C14.7498 14.669 14.7192 14.6995 14.6899 14.7313ZM9.86089 16.1699C9.82177 16.1613 9.78266 16.1503 9.74355 16.1405C9.69466 16.1283 9.64577 16.1173 9.59689 16.1027C9.55777 16.0917 9.51866 16.0794 9.47833 16.0672C9.43066 16.0525 9.38422 16.0391 9.33777 16.0232C9.29866 16.0098 9.25955 15.9951 9.22044 15.9817C9.174 15.9645 9.12877 15.9487 9.08233 15.9303C9.04322 15.9144 9.00533 15.8985 8.96744 15.8827C8.92222 15.8631 8.87822 15.8448 8.83422 15.824C8.79633 15.8069 8.75844 15.7885 8.72177 15.7702C8.67777 15.7494 8.635 15.7274 8.591 15.7054C8.55433 15.6859 8.51766 15.6651 8.481 15.6455C8.43822 15.6223 8.39666 15.5979 8.35511 15.5734C8.31844 15.5527 8.283 15.5294 8.24755 15.5074C8.206 15.4818 8.16566 15.4561 8.12533 15.4292C8.09111 15.406 8.05566 15.3815 8.02144 15.3583C7.98111 15.3302 7.942 15.3021 7.90289 15.2728C7.86989 15.2483 7.83566 15.2227 7.80389 15.197C7.76477 15.1664 7.72689 15.1359 7.689 15.1041C7.65722 15.0772 7.62544 15.0503 7.59366 15.0222C7.557 14.9892 7.51911 14.9562 7.48366 14.9232C7.45311 14.8951 7.42255 14.8658 7.392 14.8364C7.35655 14.8022 7.32111 14.7668 7.28689 14.7313C7.25755 14.7008 7.22822 14.6702 7.20011 14.6397C7.18544 14.6238 7.17077 14.6067 7.15611 14.5908C7.49711 14.2131 7.88822 13.8904 8.32455 13.6277C8.75722 14.7105 9.41111 15.6688 10.043 16.2065C10.0344 16.2053 10.0247 16.2029 10.0161 16.2017C9.96233 16.1907 9.91222 16.1821 9.86089 16.1699ZM7.29666 7.51532C7.32477 7.48599 7.35411 7.45788 7.38344 7.42977C7.41889 7.39555 7.45433 7.36132 7.48977 7.32832C7.51911 7.30144 7.54966 7.27455 7.58022 7.24766C7.61689 7.21588 7.65355 7.1841 7.69144 7.15355C7.722 7.12788 7.75377 7.10221 7.78555 7.07777C7.82344 7.04721 7.86133 7.01788 7.90044 6.98977C7.93222 6.96532 7.96522 6.9421 7.99822 6.91888C8.03733 6.89077 8.07766 6.86388 8.118 6.83699C8.151 6.81499 8.18522 6.79177 8.21944 6.77099C8.25977 6.74532 8.30133 6.71966 8.34289 6.69521C8.37711 6.67444 8.41255 6.65366 8.44677 6.6341C8.48833 6.61088 8.53111 6.58766 8.57389 6.56566C8.60933 6.54732 8.64477 6.52777 8.68022 6.51066C8.723 6.48866 8.767 6.4691 8.811 6.44832C8.84766 6.43121 8.88311 6.4141 8.91978 6.39821C8.96377 6.37866 9.009 6.36032 9.05422 6.34199C9.09089 6.32732 9.12755 6.31144 9.16422 6.29799C9.20944 6.28088 9.25589 6.26499 9.30233 6.2491C9.339 6.23566 9.37689 6.22344 9.41355 6.21121C9.46 6.19655 9.50766 6.1831 9.55533 6.16844C9.59322 6.15744 9.62989 6.14644 9.66777 6.13666C9.71666 6.12321 9.76555 6.11221 9.81444 6.10121C9.85233 6.09266 9.889 6.08288 9.92689 6.07555C9.96844 6.06699 10.01 6.05966 10.0503 6.05232C9.45389 6.55955 8.83177 7.44199 8.39666 8.45644C7.97622 8.21321 7.59366 7.91255 7.25755 7.56055C7.26977 7.54344 7.28322 7.52877 7.29666 7.51532ZM12.1794 6.10244C12.2271 6.11344 12.2748 6.12444 12.3212 6.13666C12.3603 6.14644 12.3982 6.15866 12.4361 6.16966C12.4826 6.1831 12.5278 6.19655 12.573 6.21121C12.6121 6.22344 12.65 6.23688 12.6879 6.25032C12.7319 6.26621 12.7771 6.28088 12.8211 6.29799C12.859 6.31266 12.8969 6.32855 12.9348 6.34321C12.9776 6.36032 13.0216 6.37866 13.0643 6.39699C13.1022 6.4141 13.1389 6.43121 13.1768 6.44832C13.2183 6.46788 13.2611 6.48744 13.3027 6.50821C13.3393 6.52655 13.376 6.5461 13.4127 6.56566C13.453 6.58766 13.4946 6.60966 13.5349 6.63166C13.5716 6.65244 13.607 6.67321 13.6424 6.69521C13.6816 6.71844 13.7219 6.74288 13.7598 6.76732C13.7952 6.78932 13.8307 6.81255 13.8649 6.83577C13.9028 6.86144 13.9407 6.8871 13.9786 6.91399C14.0128 6.93844 14.047 6.96288 14.08 6.98855C14.1167 7.01666 14.1533 7.04477 14.19 7.07288C14.223 7.09855 14.256 7.12544 14.2878 7.15232C14.3232 7.18166 14.3587 7.21221 14.3941 7.24277C14.4259 7.27088 14.4564 7.29777 14.487 7.3271C14.5212 7.35888 14.5554 7.39188 14.5897 7.42488C14.619 7.45421 14.6496 7.48355 14.6789 7.51288C14.6911 7.52632 14.7033 7.53977 14.7168 7.55321C14.3843 7.8991 14.0079 8.19244 13.5972 8.43321C13.1646 7.43099 12.5486 6.5571 11.957 6.0511C11.9924 6.05844 12.0279 6.06332 12.0621 6.07066C12.1024 6.08288 12.1403 6.09266 12.1794 6.10244ZM14.9637 7.83066C15.6689 8.67888 16.082 9.73244 16.1443 10.8398H14.1888C14.1484 10.1737 13.9944 9.46966 13.7366 8.78399C14.1888 8.52488 14.6007 8.20588 14.9637 7.83066ZM11.1858 9.50999C11.957 9.48188 12.7184 9.29243 13.4102 8.9551C13.6424 9.58577 13.7842 10.2299 13.8233 10.8398H11.1858V9.50999ZM11.1858 9.14332V5.99488C11.7688 6.1941 12.6916 7.24277 13.2758 8.61288C12.6268 8.93432 11.9118 9.11521 11.1858 9.14332ZM10.8191 9.14455C10.0907 9.1201 9.372 8.94288 8.72177 8.62388C9.30722 7.24399 10.2349 6.18921 10.8191 5.99366V9.14455ZM8.58733 8.9661C9.28033 9.30099 10.0442 9.48677 10.8191 9.51121V10.8398H8.17789C8.21578 10.2299 8.35389 9.60166 8.58733 8.9661ZM10.8191 11.2064V12.5252C10.0186 12.5497 9.23144 12.7477 8.52133 13.1021C8.30255 12.4555 8.184 11.8188 8.16933 11.2064H10.8191ZM10.8191 12.8919V16.2628C10.1994 16.055 9.21922 14.9061 8.64722 13.4504C9.317 13.1082 10.0613 12.9163 10.8191 12.8919ZM11.1858 16.2615V12.8931C11.9411 12.9224 12.6818 13.1168 13.3503 13.4614C12.7796 14.9049 11.8054 16.0489 11.1858 16.2615ZM13.4774 13.1131C12.7686 12.755 11.9839 12.5545 11.1858 12.5252V11.2052H13.8331C13.8184 11.8249 13.6987 12.4653 13.4774 13.1131ZM8.25977 8.79621C8.00066 9.48799 7.85033 10.1737 7.81122 10.8398H5.83122C5.89233 9.7361 6.30544 8.68132 7.01189 7.83066C7.37977 8.21199 7.799 8.53466 8.25977 8.79621ZM7.80266 11.2064C7.81733 11.8787 7.94933 12.5741 8.195 13.2781C7.71833 13.5568 7.28933 13.9014 6.91655 14.3084C6.22477 13.4248 5.83977 12.3333 5.82266 11.2064H7.80266ZM13.8038 13.2915C14.0507 12.5851 14.1839 11.886 14.1998 11.2064H16.1541C16.137 12.3333 15.752 13.4248 15.0602 14.3084C14.6923 13.9088 14.2707 13.5678 13.8038 13.2915Z"/>
</mask>
<path d="M15.3047 14.5895C16.0906 13.6118 16.522 12.3895 16.522 11.1294C16.522 11.0903 16.522 11.0512 16.5196 11.0207C16.4963 9.74955 16.0331 8.52732 15.2142 7.55932L15.2167 7.55688L15.1067 7.43466C14.0666 6.27721 12.5816 5.60744 11.0183 5.59644C11.0159 5.59644 11.0122 5.59644 11.0098 5.59644H11.0024C11.0012 5.59644 11.0012 5.59644 11 5.59644H10.9878C10.5954 5.59644 10.2068 5.63799 9.82911 5.71988C9.60666 5.76755 9.38789 5.8311 9.174 5.90566C8.47855 6.14766 7.83444 6.5241 7.282 7.02155C7.13777 7.15232 6.99966 7.29044 6.86889 7.43588L6.75889 7.5581L6.76133 7.56055C5.94244 8.52855 5.47922 9.75077 5.456 11.0133C5.45355 11.0512 5.45355 11.0903 5.45355 11.1307C5.45355 12.3908 5.885 13.613 6.67089 14.5908L6.66844 14.5932L6.76866 14.7118C6.83222 14.7875 6.89822 14.8609 6.96666 14.9318C6.99233 14.9587 7.01922 14.9843 7.04489 15.01C7.08766 15.054 7.13044 15.098 7.17444 15.1395C7.205 15.1689 7.238 15.197 7.26855 15.2251C7.30889 15.2618 7.34922 15.2997 7.392 15.3363C7.42622 15.3657 7.46166 15.3925 7.49711 15.4219C7.53744 15.4549 7.57777 15.4891 7.61933 15.5209C7.656 15.549 7.69389 15.5747 7.73055 15.6028C7.77211 15.6333 7.81244 15.6639 7.85522 15.692C7.89311 15.7189 7.93344 15.7433 7.97133 15.7678C8.01411 15.7959 8.05566 15.824 8.09844 15.8497C8.13877 15.8741 8.17911 15.8961 8.21944 15.9193C8.26222 15.9438 8.30622 15.9707 8.35022 15.9939C8.39177 16.0159 8.43333 16.0367 8.47489 16.0587C8.51889 16.0807 8.56289 16.1039 8.60811 16.1259C8.65089 16.1467 8.69366 16.165 8.73644 16.1833C8.78166 16.2029 8.82689 16.2237 8.87211 16.2432C8.91611 16.2615 8.96011 16.2774 9.00411 16.2945C9.05055 16.3117 9.09577 16.33 9.14222 16.3471C9.18744 16.363 9.23266 16.3764 9.27789 16.3911C9.32433 16.4058 9.372 16.4217 9.41844 16.4363C9.46366 16.4498 9.51011 16.462 9.55533 16.4742C9.603 16.4864 9.65066 16.4999 9.69955 16.5121C9.746 16.5231 9.79244 16.5329 9.83889 16.5427C9.88777 16.5524 9.93666 16.5634 9.98555 16.572C10.032 16.5805 10.0797 16.5879 10.1261 16.5952C10.175 16.6025 10.2251 16.6111 10.2752 16.6172C10.3229 16.6233 10.3693 16.6282 10.417 16.6331C10.4671 16.638 10.5172 16.6441 10.5673 16.6478C10.615 16.6514 10.6627 16.6539 10.7103 16.6563C10.747 16.6575 10.7824 16.6612 10.8179 16.6624L10.9939 16.6673C10.9951 16.6673 10.9976 16.6673 10.9988 16.6673H11.0012C11.0232 16.6673 11.0464 16.6661 11.0684 16.6637C11.1161 16.6624 11.1638 16.66 11.2127 16.6575C11.2628 16.6551 11.3129 16.6551 11.363 16.6514C11.4107 16.6478 11.4583 16.6429 11.5048 16.638C11.5561 16.6331 11.6074 16.6294 11.6576 16.6233C11.7028 16.6172 11.748 16.6099 11.7932 16.6025C11.8458 16.5952 11.8971 16.5879 11.9497 16.5793C11.9924 16.572 12.034 16.5622 12.0768 16.5537C12.1306 16.5427 12.1843 16.5329 12.2381 16.5207C12.2784 16.5109 12.3176 16.4999 12.3579 16.4901C12.4129 16.4754 12.4679 16.4632 12.5229 16.4473C12.5596 16.4363 12.5962 16.4241 12.6341 16.4119C12.6903 16.3948 12.7478 16.3777 12.8028 16.3581C12.8346 16.3471 12.8651 16.3337 12.8969 16.3227C12.9568 16.3007 13.0179 16.2787 13.0766 16.2542C13.1022 16.2432 13.1279 16.231 13.1548 16.22C13.2183 16.1931 13.2819 16.1662 13.3454 16.1369C13.3674 16.1259 13.3894 16.1149 13.4114 16.1039C13.4774 16.0721 13.5422 16.0403 13.607 16.0049C13.6241 15.9963 13.64 15.9853 13.6559 15.9768C13.7243 15.9389 13.794 15.8998 13.8612 15.8594C13.8722 15.8533 13.882 15.846 13.8918 15.8399C13.9651 15.7947 14.0372 15.7494 14.1081 15.7005C14.113 15.6969 14.1179 15.6932 14.1216 15.6908C14.52 15.417 14.8842 15.0894 15.2044 14.7142C15.2057 14.713 15.2057 14.7118 15.2069 14.7118L15.3059 14.5957L15.3047 14.5895ZM14.6899 14.7313C14.6569 14.7655 14.6227 14.7998 14.5884 14.8328C14.5579 14.8621 14.5261 14.8927 14.4956 14.9208C14.4601 14.9538 14.4247 14.9855 14.388 15.0173C14.3562 15.0454 14.3244 15.0723 14.2927 15.0992C14.2548 15.131 14.2169 15.1615 14.1778 15.1921C14.146 15.2178 14.113 15.2422 14.0812 15.2667C14.0409 15.2972 14.0006 15.3265 13.959 15.3547C13.9272 15.3767 13.8954 15.3999 13.8624 15.4219C13.8184 15.4512 13.7744 15.4793 13.7304 15.5074C13.6999 15.527 13.6681 15.5465 13.6363 15.5649C13.5887 15.593 13.541 15.6199 13.4921 15.6468C13.4628 15.6627 13.4334 15.6798 13.4041 15.6957C13.3516 15.7238 13.299 15.7494 13.2452 15.7751C13.2183 15.7885 13.1914 15.802 13.1646 15.8142C13.1071 15.8411 13.0484 15.8668 12.9898 15.8912C12.9666 15.901 12.9433 15.9108 12.9201 15.9205C12.8553 15.9462 12.7906 15.9707 12.7246 15.9939C12.7062 16 12.6879 16.0073 12.6683 16.0147C12.5962 16.0391 12.5241 16.0623 12.4508 16.0831C12.4373 16.0868 12.4251 16.0917 12.4117 16.0953C12.331 16.1185 12.2503 16.1393 12.1684 16.1577C12.1623 16.1589 12.155 16.1613 12.1489 16.1625C12.089 16.176 12.0291 16.187 11.9692 16.1992C12.595 15.6614 13.2452 14.7105 13.6754 13.6399C14.102 13.9002 14.487 14.2192 14.8231 14.5908C14.8097 14.6067 14.795 14.6225 14.7816 14.6372C14.7498 14.669 14.7192 14.6995 14.6899 14.7313ZM9.86089 16.1699C9.82177 16.1613 9.78266 16.1503 9.74355 16.1405C9.69466 16.1283 9.64577 16.1173 9.59689 16.1027C9.55777 16.0917 9.51866 16.0794 9.47833 16.0672C9.43066 16.0525 9.38422 16.0391 9.33777 16.0232C9.29866 16.0098 9.25955 15.9951 9.22044 15.9817C9.174 15.9645 9.12877 15.9487 9.08233 15.9303C9.04322 15.9144 9.00533 15.8985 8.96744 15.8827C8.92222 15.8631 8.87822 15.8448 8.83422 15.824C8.79633 15.8069 8.75844 15.7885 8.72177 15.7702C8.67777 15.7494 8.635 15.7274 8.591 15.7054C8.55433 15.6859 8.51766 15.6651 8.481 15.6455C8.43822 15.6223 8.39666 15.5979 8.35511 15.5734C8.31844 15.5527 8.283 15.5294 8.24755 15.5074C8.206 15.4818 8.16566 15.4561 8.12533 15.4292C8.09111 15.406 8.05566 15.3815 8.02144 15.3583C7.98111 15.3302 7.942 15.3021 7.90289 15.2728C7.86989 15.2483 7.83566 15.2227 7.80389 15.197C7.76477 15.1664 7.72689 15.1359 7.689 15.1041C7.65722 15.0772 7.62544 15.0503 7.59366 15.0222C7.557 14.9892 7.51911 14.9562 7.48366 14.9232C7.45311 14.8951 7.42255 14.8658 7.392 14.8364C7.35655 14.8022 7.32111 14.7668 7.28689 14.7313C7.25755 14.7008 7.22822 14.6702 7.20011 14.6397C7.18544 14.6238 7.17077 14.6067 7.15611 14.5908C7.49711 14.2131 7.88822 13.8904 8.32455 13.6277C8.75722 14.7105 9.41111 15.6688 10.043 16.2065C10.0344 16.2053 10.0247 16.2029 10.0161 16.2017C9.96233 16.1907 9.91222 16.1821 9.86089 16.1699ZM7.29666 7.51532C7.32477 7.48599 7.35411 7.45788 7.38344 7.42977C7.41889 7.39555 7.45433 7.36132 7.48977 7.32832C7.51911 7.30144 7.54966 7.27455 7.58022 7.24766C7.61689 7.21588 7.65355 7.1841 7.69144 7.15355C7.722 7.12788 7.75377 7.10221 7.78555 7.07777C7.82344 7.04721 7.86133 7.01788 7.90044 6.98977C7.93222 6.96532 7.96522 6.9421 7.99822 6.91888C8.03733 6.89077 8.07766 6.86388 8.118 6.83699C8.151 6.81499 8.18522 6.79177 8.21944 6.77099C8.25977 6.74532 8.30133 6.71966 8.34289 6.69521C8.37711 6.67444 8.41255 6.65366 8.44677 6.6341C8.48833 6.61088 8.53111 6.58766 8.57389 6.56566C8.60933 6.54732 8.64477 6.52777 8.68022 6.51066C8.723 6.48866 8.767 6.4691 8.811 6.44832C8.84766 6.43121 8.88311 6.4141 8.91978 6.39821C8.96377 6.37866 9.009 6.36032 9.05422 6.34199C9.09089 6.32732 9.12755 6.31144 9.16422 6.29799C9.20944 6.28088 9.25589 6.26499 9.30233 6.2491C9.339 6.23566 9.37689 6.22344 9.41355 6.21121C9.46 6.19655 9.50766 6.1831 9.55533 6.16844C9.59322 6.15744 9.62989 6.14644 9.66777 6.13666C9.71666 6.12321 9.76555 6.11221 9.81444 6.10121C9.85233 6.09266 9.889 6.08288 9.92689 6.07555C9.96844 6.06699 10.01 6.05966 10.0503 6.05232C9.45389 6.55955 8.83177 7.44199 8.39666 8.45644C7.97622 8.21321 7.59366 7.91255 7.25755 7.56055C7.26977 7.54344 7.28322 7.52877 7.29666 7.51532ZM12.1794 6.10244C12.2271 6.11344 12.2748 6.12444 12.3212 6.13666C12.3603 6.14644 12.3982 6.15866 12.4361 6.16966C12.4826 6.1831 12.5278 6.19655 12.573 6.21121C12.6121 6.22344 12.65 6.23688 12.6879 6.25032C12.7319 6.26621 12.7771 6.28088 12.8211 6.29799C12.859 6.31266 12.8969 6.32855 12.9348 6.34321C12.9776 6.36032 13.0216 6.37866 13.0643 6.39699C13.1022 6.4141 13.1389 6.43121 13.1768 6.44832C13.2183 6.46788 13.2611 6.48744 13.3027 6.50821C13.3393 6.52655 13.376 6.5461 13.4127 6.56566C13.453 6.58766 13.4946 6.60966 13.5349 6.63166C13.5716 6.65244 13.607 6.67321 13.6424 6.69521C13.6816 6.71844 13.7219 6.74288 13.7598 6.76732C13.7952 6.78932 13.8307 6.81255 13.8649 6.83577C13.9028 6.86144 13.9407 6.8871 13.9786 6.91399C14.0128 6.93844 14.047 6.96288 14.08 6.98855C14.1167 7.01666 14.1533 7.04477 14.19 7.07288C14.223 7.09855 14.256 7.12544 14.2878 7.15232C14.3232 7.18166 14.3587 7.21221 14.3941 7.24277C14.4259 7.27088 14.4564 7.29777 14.487 7.3271C14.5212 7.35888 14.5554 7.39188 14.5897 7.42488C14.619 7.45421 14.6496 7.48355 14.6789 7.51288C14.6911 7.52632 14.7033 7.53977 14.7168 7.55321C14.3843 7.8991 14.0079 8.19244 13.5972 8.43321C13.1646 7.43099 12.5486 6.5571 11.957 6.0511C11.9924 6.05844 12.0279 6.06332 12.0621 6.07066C12.1024 6.08288 12.1403 6.09266 12.1794 6.10244ZM14.9637 7.83066C15.6689 8.67888 16.082 9.73244 16.1443 10.8398H14.1888C14.1484 10.1737 13.9944 9.46966 13.7366 8.78399C14.1888 8.52488 14.6007 8.20588 14.9637 7.83066ZM11.1858 9.50999C11.957 9.48188 12.7184 9.29243 13.4102 8.9551C13.6424 9.58577 13.7842 10.2299 13.8233 10.8398H11.1858V9.50999ZM11.1858 9.14332V5.99488C11.7688 6.1941 12.6916 7.24277 13.2758 8.61288C12.6268 8.93432 11.9118 9.11521 11.1858 9.14332ZM10.8191 9.14455C10.0907 9.1201 9.372 8.94288 8.72177 8.62388C9.30722 7.24399 10.2349 6.18921 10.8191 5.99366V9.14455ZM8.58733 8.9661C9.28033 9.30099 10.0442 9.48677 10.8191 9.51121V10.8398H8.17789C8.21578 10.2299 8.35389 9.60166 8.58733 8.9661ZM10.8191 11.2064V12.5252C10.0186 12.5497 9.23144 12.7477 8.52133 13.1021C8.30255 12.4555 8.184 11.8188 8.16933 11.2064H10.8191ZM10.8191 12.8919V16.2628C10.1994 16.055 9.21922 14.9061 8.64722 13.4504C9.317 13.1082 10.0613 12.9163 10.8191 12.8919ZM11.1858 16.2615V12.8931C11.9411 12.9224 12.6818 13.1168 13.3503 13.4614C12.7796 14.9049 11.8054 16.0489 11.1858 16.2615ZM13.4774 13.1131C12.7686 12.755 11.9839 12.5545 11.1858 12.5252V11.2052H13.8331C13.8184 11.8249 13.6987 12.4653 13.4774 13.1131ZM8.25977 8.79621C8.00066 9.48799 7.85033 10.1737 7.81122 10.8398H5.83122C5.89233 9.7361 6.30544 8.68132 7.01189 7.83066C7.37977 8.21199 7.799 8.53466 8.25977 8.79621ZM7.80266 11.2064C7.81733 11.8787 7.94933 12.5741 8.195 13.2781C7.71833 13.5568 7.28933 13.9014 6.91655 14.3084C6.22477 13.4248 5.83977 12.3333 5.82266 11.2064H7.80266ZM13.8038 13.2915C14.0507 12.5851 14.1839 11.886 14.1998 11.2064H16.1541C16.137 12.3333 15.752 13.4248 15.0602 14.3084C14.6923 13.9088 14.2707 13.5678 13.8038 13.2915Z" fill="#4D4D4D"/>
<path d="M15.3047 14.5895C16.0906 13.6118 16.522 12.3895 16.522 11.1294C16.522 11.0903 16.522 11.0512 16.5196 11.0207C16.4963 9.74955 16.0331 8.52732 15.2142 7.55932L15.2167 7.55688L15.1067 7.43466C14.0666 6.27721 12.5816 5.60744 11.0183 5.59644C11.0159 5.59644 11.0122 5.59644 11.0098 5.59644H11.0024C11.0012 5.59644 11.0012 5.59644 11 5.59644H10.9878C10.5954 5.59644 10.2068 5.63799 9.82911 5.71988C9.60666 5.76755 9.38789 5.8311 9.174 5.90566C8.47855 6.14766 7.83444 6.5241 7.282 7.02155C7.13777 7.15232 6.99966 7.29044 6.86889 7.43588L6.75889 7.5581L6.76133 7.56055C5.94244 8.52855 5.47922 9.75077 5.456 11.0133C5.45355 11.0512 5.45355 11.0903 5.45355 11.1307C5.45355 12.3908 5.885 13.613 6.67089 14.5908L6.66844 14.5932L6.76866 14.7118C6.83222 14.7875 6.89822 14.8609 6.96666 14.9318C6.99233 14.9587 7.01922 14.9843 7.04489 15.01C7.08766 15.054 7.13044 15.098 7.17444 15.1395C7.205 15.1689 7.238 15.197 7.26855 15.2251C7.30889 15.2618 7.34922 15.2997 7.392 15.3363C7.42622 15.3657 7.46166 15.3925 7.49711 15.4219C7.53744 15.4549 7.57777 15.4891 7.61933 15.5209C7.656 15.549 7.69389 15.5747 7.73055 15.6028C7.77211 15.6333 7.81244 15.6639 7.85522 15.692C7.89311 15.7189 7.93344 15.7433 7.97133 15.7678C8.01411 15.7959 8.05566 15.824 8.09844 15.8497C8.13877 15.8741 8.17911 15.8961 8.21944 15.9193C8.26222 15.9438 8.30622 15.9707 8.35022 15.9939C8.39177 16.0159 8.43333 16.0367 8.47489 16.0587C8.51889 16.0807 8.56289 16.1039 8.60811 16.1259C8.65089 16.1467 8.69366 16.165 8.73644 16.1833C8.78166 16.2029 8.82689 16.2237 8.87211 16.2432C8.91611 16.2615 8.96011 16.2774 9.00411 16.2945C9.05055 16.3117 9.09577 16.33 9.14222 16.3471C9.18744 16.363 9.23266 16.3764 9.27789 16.3911C9.32433 16.4058 9.372 16.4217 9.41844 16.4363C9.46366 16.4498 9.51011 16.462 9.55533 16.4742C9.603 16.4864 9.65066 16.4999 9.69955 16.5121C9.746 16.5231 9.79244 16.5329 9.83889 16.5427C9.88777 16.5524 9.93666 16.5634 9.98555 16.572C10.032 16.5805 10.0797 16.5879 10.1261 16.5952C10.175 16.6025 10.2251 16.6111 10.2752 16.6172C10.3229 16.6233 10.3693 16.6282 10.417 16.6331C10.4671 16.638 10.5172 16.6441 10.5673 16.6478C10.615 16.6514 10.6627 16.6539 10.7103 16.6563C10.747 16.6575 10.7824 16.6612 10.8179 16.6624L10.9939 16.6673C10.9951 16.6673 10.9976 16.6673 10.9988 16.6673H11.0012C11.0232 16.6673 11.0464 16.6661 11.0684 16.6637C11.1161 16.6624 11.1638 16.66 11.2127 16.6575C11.2628 16.6551 11.3129 16.6551 11.363 16.6514C11.4107 16.6478 11.4583 16.6429 11.5048 16.638C11.5561 16.6331 11.6074 16.6294 11.6576 16.6233C11.7028 16.6172 11.748 16.6099 11.7932 16.6025C11.8458 16.5952 11.8971 16.5879 11.9497 16.5793C11.9924 16.572 12.034 16.5622 12.0768 16.5537C12.1306 16.5427 12.1843 16.5329 12.2381 16.5207C12.2784 16.5109 12.3176 16.4999 12.3579 16.4901C12.4129 16.4754 12.4679 16.4632 12.5229 16.4473C12.5596 16.4363 12.5962 16.4241 12.6341 16.4119C12.6903 16.3948 12.7478 16.3777 12.8028 16.3581C12.8346 16.3471 12.8651 16.3337 12.8969 16.3227C12.9568 16.3007 13.0179 16.2787 13.0766 16.2542C13.1022 16.2432 13.1279 16.231 13.1548 16.22C13.2183 16.1931 13.2819 16.1662 13.3454 16.1369C13.3674 16.1259 13.3894 16.1149 13.4114 16.1039C13.4774 16.0721 13.5422 16.0403 13.607 16.0049C13.6241 15.9963 13.64 15.9853 13.6559 15.9768C13.7243 15.9389 13.794 15.8998 13.8612 15.8594C13.8722 15.8533 13.882 15.846 13.8918 15.8399C13.9651 15.7947 14.0372 15.7494 14.1081 15.7005C14.113 15.6969 14.1179 15.6932 14.1216 15.6908C14.52 15.417 14.8842 15.0894 15.2044 14.7142C15.2057 14.713 15.2057 14.7118 15.2069 14.7118L15.3059 14.5957L15.3047 14.5895ZM14.6899 14.7313C14.6569 14.7655 14.6227 14.7998 14.5884 14.8328C14.5579 14.8621 14.5261 14.8927 14.4956 14.9208C14.4601 14.9538 14.4247 14.9855 14.388 15.0173C14.3562 15.0454 14.3244 15.0723 14.2927 15.0992C14.2548 15.131 14.2169 15.1615 14.1778 15.1921C14.146 15.2178 14.113 15.2422 14.0812 15.2667C14.0409 15.2972 14.0006 15.3265 13.959 15.3547C13.9272 15.3767 13.8954 15.3999 13.8624 15.4219C13.8184 15.4512 13.7744 15.4793 13.7304 15.5074C13.6999 15.527 13.6681 15.5465 13.6363 15.5649C13.5887 15.593 13.541 15.6199 13.4921 15.6468C13.4628 15.6627 13.4334 15.6798 13.4041 15.6957C13.3516 15.7238 13.299 15.7494 13.2452 15.7751C13.2183 15.7885 13.1914 15.802 13.1646 15.8142C13.1071 15.8411 13.0484 15.8668 12.9898 15.8912C12.9666 15.901 12.9433 15.9108 12.9201 15.9205C12.8553 15.9462 12.7906 15.9707 12.7246 15.9939C12.7062 16 12.6879 16.0073 12.6683 16.0147C12.5962 16.0391 12.5241 16.0623 12.4508 16.0831C12.4373 16.0868 12.4251 16.0917 12.4117 16.0953C12.331 16.1185 12.2503 16.1393 12.1684 16.1577C12.1623 16.1589 12.155 16.1613 12.1489 16.1625C12.089 16.176 12.0291 16.187 11.9692 16.1992C12.595 15.6614 13.2452 14.7105 13.6754 13.6399C14.102 13.9002 14.487 14.2192 14.8231 14.5908C14.8097 14.6067 14.795 14.6225 14.7816 14.6372C14.7498 14.669 14.7192 14.6995 14.6899 14.7313ZM9.86089 16.1699C9.82177 16.1613 9.78266 16.1503 9.74355 16.1405C9.69466 16.1283 9.64577 16.1173 9.59689 16.1027C9.55777 16.0917 9.51866 16.0794 9.47833 16.0672C9.43066 16.0525 9.38422 16.0391 9.33777 16.0232C9.29866 16.0098 9.25955 15.9951 9.22044 15.9817C9.174 15.9645 9.12877 15.9487 9.08233 15.9303C9.04322 15.9144 9.00533 15.8985 8.96744 15.8827C8.92222 15.8631 8.87822 15.8448 8.83422 15.824C8.79633 15.8069 8.75844 15.7885 8.72177 15.7702C8.67777 15.7494 8.635 15.7274 8.591 15.7054C8.55433 15.6859 8.51766 15.6651 8.481 15.6455C8.43822 15.6223 8.39666 15.5979 8.35511 15.5734C8.31844 15.5527 8.283 15.5294 8.24755 15.5074C8.206 15.4818 8.16566 15.4561 8.12533 15.4292C8.09111 15.406 8.05566 15.3815 8.02144 15.3583C7.98111 15.3302 7.942 15.3021 7.90289 15.2728C7.86989 15.2483 7.83566 15.2227 7.80389 15.197C7.76477 15.1664 7.72689 15.1359 7.689 15.1041C7.65722 15.0772 7.62544 15.0503 7.59366 15.0222C7.557 14.9892 7.51911 14.9562 7.48366 14.9232C7.45311 14.8951 7.42255 14.8658 7.392 14.8364C7.35655 14.8022 7.32111 14.7668 7.28689 14.7313C7.25755 14.7008 7.22822 14.6702 7.20011 14.6397C7.18544 14.6238 7.17077 14.6067 7.15611 14.5908C7.49711 14.2131 7.88822 13.8904 8.32455 13.6277C8.75722 14.7105 9.41111 15.6688 10.043 16.2065C10.0344 16.2053 10.0247 16.2029 10.0161 16.2017C9.96233 16.1907 9.91222 16.1821 9.86089 16.1699ZM7.29666 7.51532C7.32477 7.48599 7.35411 7.45788 7.38344 7.42977C7.41889 7.39555 7.45433 7.36132 7.48977 7.32832C7.51911 7.30144 7.54966 7.27455 7.58022 7.24766C7.61689 7.21588 7.65355 7.1841 7.69144 7.15355C7.722 7.12788 7.75377 7.10221 7.78555 7.07777C7.82344 7.04721 7.86133 7.01788 7.90044 6.98977C7.93222 6.96532 7.96522 6.9421 7.99822 6.91888C8.03733 6.89077 8.07766 6.86388 8.118 6.83699C8.151 6.81499 8.18522 6.79177 8.21944 6.77099C8.25977 6.74532 8.30133 6.71966 8.34289 6.69521C8.37711 6.67444 8.41255 6.65366 8.44677 6.6341C8.48833 6.61088 8.53111 6.58766 8.57389 6.56566C8.60933 6.54732 8.64477 6.52777 8.68022 6.51066C8.723 6.48866 8.767 6.4691 8.811 6.44832C8.84766 6.43121 8.88311 6.4141 8.91978 6.39821C8.96377 6.37866 9.009 6.36032 9.05422 6.34199C9.09089 6.32732 9.12755 6.31144 9.16422 6.29799C9.20944 6.28088 9.25589 6.26499 9.30233 6.2491C9.339 6.23566 9.37689 6.22344 9.41355 6.21121C9.46 6.19655 9.50766 6.1831 9.55533 6.16844C9.59322 6.15744 9.62989 6.14644 9.66777 6.13666C9.71666 6.12321 9.76555 6.11221 9.81444 6.10121C9.85233 6.09266 9.889 6.08288 9.92689 6.07555C9.96844 6.06699 10.01 6.05966 10.0503 6.05232C9.45389 6.55955 8.83177 7.44199 8.39666 8.45644C7.97622 8.21321 7.59366 7.91255 7.25755 7.56055C7.26977 7.54344 7.28322 7.52877 7.29666 7.51532ZM12.1794 6.10244C12.2271 6.11344 12.2748 6.12444 12.3212 6.13666C12.3603 6.14644 12.3982 6.15866 12.4361 6.16966C12.4826 6.1831 12.5278 6.19655 12.573 6.21121C12.6121 6.22344 12.65 6.23688 12.6879 6.25032C12.7319 6.26621 12.7771 6.28088 12.8211 6.29799C12.859 6.31266 12.8969 6.32855 12.9348 6.34321C12.9776 6.36032 13.0216 6.37866 13.0643 6.39699C13.1022 6.4141 13.1389 6.43121 13.1768 6.44832C13.2183 6.46788 13.2611 6.48744 13.3027 6.50821C13.3393 6.52655 13.376 6.5461 13.4127 6.56566C13.453 6.58766 13.4946 6.60966 13.5349 6.63166C13.5716 6.65244 13.607 6.67321 13.6424 6.69521C13.6816 6.71844 13.7219 6.74288 13.7598 6.76732C13.7952 6.78932 13.8307 6.81255 13.8649 6.83577C13.9028 6.86144 13.9407 6.8871 13.9786 6.91399C14.0128 6.93844 14.047 6.96288 14.08 6.98855C14.1167 7.01666 14.1533 7.04477 14.19 7.07288C14.223 7.09855 14.256 7.12544 14.2878 7.15232C14.3232 7.18166 14.3587 7.21221 14.3941 7.24277C14.4259 7.27088 14.4564 7.29777 14.487 7.3271C14.5212 7.35888 14.5554 7.39188 14.5897 7.42488C14.619 7.45421 14.6496 7.48355 14.6789 7.51288C14.6911 7.52632 14.7033 7.53977 14.7168 7.55321C14.3843 7.8991 14.0079 8.19244 13.5972 8.43321C13.1646 7.43099 12.5486 6.5571 11.957 6.0511C11.9924 6.05844 12.0279 6.06332 12.0621 6.07066C12.1024 6.08288 12.1403 6.09266 12.1794 6.10244ZM14.9637 7.83066C15.6689 8.67888 16.082 9.73244 16.1443 10.8398H14.1888C14.1484 10.1737 13.9944 9.46966 13.7366 8.78399C14.1888 8.52488 14.6007 8.20588 14.9637 7.83066ZM11.1858 9.50999C11.957 9.48188 12.7184 9.29243 13.4102 8.9551C13.6424 9.58577 13.7842 10.2299 13.8233 10.8398H11.1858V9.50999ZM11.1858 9.14332V5.99488C11.7688 6.1941 12.6916 7.24277 13.2758 8.61288C12.6268 8.93432 11.9118 9.11521 11.1858 9.14332ZM10.8191 9.14455C10.0907 9.1201 9.372 8.94288 8.72177 8.62388C9.30722 7.24399 10.2349 6.18921 10.8191 5.99366V9.14455ZM8.58733 8.9661C9.28033 9.30099 10.0442 9.48677 10.8191 9.51121V10.8398H8.17789C8.21578 10.2299 8.35389 9.60166 8.58733 8.9661ZM10.8191 11.2064V12.5252C10.0186 12.5497 9.23144 12.7477 8.52133 13.1021C8.30255 12.4555 8.184 11.8188 8.16933 11.2064H10.8191ZM10.8191 12.8919V16.2628C10.1994 16.055 9.21922 14.9061 8.64722 13.4504C9.317 13.1082 10.0613 12.9163 10.8191 12.8919ZM11.1858 16.2615V12.8931C11.9411 12.9224 12.6818 13.1168 13.3503 13.4614C12.7796 14.9049 11.8054 16.0489 11.1858 16.2615ZM13.4774 13.1131C12.7686 12.755 11.9839 12.5545 11.1858 12.5252V11.2052H13.8331C13.8184 11.8249 13.6987 12.4653 13.4774 13.1131ZM8.25977 8.79621C8.00066 9.48799 7.85033 10.1737 7.81122 10.8398H5.83122C5.89233 9.7361 6.30544 8.68132 7.01189 7.83066C7.37977 8.21199 7.799 8.53466 8.25977 8.79621ZM7.80266 11.2064C7.81733 11.8787 7.94933 12.5741 8.195 13.2781C7.71833 13.5568 7.28933 13.9014 6.91655 14.3084C6.22477 13.4248 5.83977 12.3333 5.82266 11.2064H7.80266ZM13.8038 13.2915C14.0507 12.5851 14.1839 11.886 14.1998 11.2064H16.1541C16.137 12.3333 15.752 13.4248 15.0602 14.3084C14.6923 13.9088 14.2707 13.5678 13.8038 13.2915Z" stroke="#4D4D4D" stroke-width="0.4" mask="url(#path-1-outside-1_835_1953)"/>
<path d="M9.9158 2.54183L10.79 1.60133V3.87197C10.79 4.02865 10.9167 4.15531 11.0733 4.15531C11.23 4.15531 11.3567 4.02865 11.3567 3.87197V1.60133L12.2309 2.54183L12.299 2.61517L12.3723 2.54691L12.6412 2.29636L12.7143 2.22824L12.6462 2.15508L11.1466 0.542973L11.0733 0.464265L11.0001 0.542973L9.50045 2.15508L9.4324 2.22824L9.5055 2.29636L9.77439 2.54691L9.84764 2.61517L9.9158 2.54183Z" fill="#4D4D4D" stroke="#4D4D4D" stroke-width="0.2"/>
<path d="M4.15677 5.88952L4.2567 5.88587L4.25305 5.78593L4.20612 4.50268L5.81185 6.10841C5.86668 6.16324 5.94006 6.19147 6.01211 6.19147C6.08417 6.19147 6.15755 6.16324 6.21238 6.10841C6.3231 5.99768 6.32408 5.81801 6.21208 5.70758C6.21198 5.70748 6.21188 5.70737 6.21177 5.70727L4.60556 4.10215L5.88868 4.14907L5.9886 4.15273L5.99227 4.0528L6.00571 3.68614L6.00938 3.5862L5.90944 3.58254L3.70944 3.50187L3.60197 3.49793L3.60585 3.60541L3.68529 5.80664L3.6889 5.90662L3.78888 5.90296L4.15677 5.88952Z" fill="#4D4D4D" stroke="#4D4D4D" stroke-width="0.2"/>
<path d="M2.54186 12.0842L1.60136 11.21H3.872C4.02868 11.21 4.15534 11.0833 4.15534 10.9267C4.15534 10.77 4.02868 10.6433 3.872 10.6433H1.60136L2.54186 9.76914L2.6152 9.70097L2.54694 9.62772L2.29639 9.35883L2.22827 9.28573L2.15511 9.35378L0.543003 10.8535L0.464296 10.9267L0.543003 10.9999L2.15511 12.4996L2.22827 12.5676L2.29639 12.4945L2.54694 12.2256L2.6152 12.1524L2.54186 12.0842Z" fill="#4D4D4D" stroke="#4D4D4D" stroke-width="0.2"/>
<path d="M5.78602 17.7469L4.50277 17.7939L6.1085 16.1881C6.21932 16.0773 6.2202 15.8974 6.10789 15.787C5.99765 15.6786 5.81989 15.6757 5.70797 15.7876L4.10224 17.3933L4.14916 16.1101L4.15282 16.0102L4.0529 16.0065L3.68623 15.993L3.5863 15.9894L3.58263 16.0893L3.50197 18.2893L3.49802 18.3968L3.6055 18.3929L5.80673 18.3135L5.90672 18.3099L5.90305 18.2099L5.88961 17.8432L5.88595 17.7433L5.78602 17.7469Z" fill="#4D4D4D" stroke="#4D4D4D" stroke-width="0.2"/>
<path d="M12.0842 19.4581L11.21 20.3986V18.1279C11.21 17.9712 11.0833 17.8446 10.9267 17.8446C10.77 17.8446 10.6433 17.9712 10.6433 18.1279V20.3998L9.76914 19.4593L9.70097 19.3859L9.62772 19.4542L9.35883 19.7048L9.2857 19.7729L9.35381 19.8461L10.8535 21.4569L10.9267 21.5356L10.9999 21.4569L12.4996 19.8448L12.5676 19.7716L12.4945 19.7035L12.2256 19.453L12.1524 19.3847L12.0842 19.4581Z" fill="#4D4D4D" stroke="#4D4D4D" stroke-width="0.2"/>
<path d="M17.8436 16.1105L17.7433 16.1138L17.747 16.2141L17.7939 17.4973L16.1882 15.8916C16.0773 15.7807 15.8974 15.7799 15.787 15.8922C15.6791 16.002 15.6752 16.1812 15.7879 16.2924C15.788 16.2925 15.7881 16.2926 15.7882 16.2927L17.3946 17.8991L16.1113 17.8521L16.0114 17.8485L16.0077 17.9484L15.9943 18.3151L15.9906 18.415L16.0906 18.4187L18.2906 18.4993L18.398 18.5033L18.3942 18.3958L18.3147 16.1946L18.3111 16.0949L18.2115 16.0982L17.8436 16.1105Z" fill="#4D4D4D" stroke="#4D4D4D" stroke-width="0.2"/>
<path d="M19.8449 9.50051L19.7717 9.43246L19.7036 9.50556L19.4531 9.77445L19.3848 9.8477L19.4581 9.91586L20.3986 10.7901H18.128C17.9713 10.7901 17.8447 10.9167 17.8447 11.0734C17.8447 11.2301 17.9713 11.3567 18.128 11.3567H20.3999L19.4594 12.2309L19.386 12.2991L19.4543 12.3723L19.7048 12.6412L19.773 12.7144L19.8461 12.6463L21.457 11.1466L21.5357 11.0734L21.457 11.0002L19.8449 9.50051Z" fill="#4D4D4D" stroke="#4D4D4D" stroke-width="0.2"/>
<path d="M16.292 6.21241L16.2921 6.21239L17.8978 4.60559L17.8508 5.88871L17.8472 5.98864L17.9471 5.9923L18.3138 6.00574L18.4137 6.00941L18.4174 5.90947L18.498 3.70947L18.502 3.602L18.3945 3.60588L16.1933 3.68532L16.0933 3.68893L16.097 3.78892L16.1104 4.15559L16.1141 4.25551L16.214 4.25186L17.4974 4.20493L15.8915 5.81188C15.8915 5.81189 15.8915 5.81189 15.8915 5.8119C15.7808 5.92263 15.7798 6.10229 15.8918 6.21271C15.9466 6.26735 16.0199 6.29548 16.0918 6.29548C16.1638 6.29548 16.2372 6.26724 16.292 6.21241Z" fill="#4D4D4D" stroke="#4D4D4D" stroke-width="0.2"/>
</g>
<defs>
<clipPath id="clip0_835_1953">
<rect width="22" height="22" fill="white"/>
</clipPath>
</defs>
</svg>
