<svg width="156" height="35" viewBox="0 0 156 35" fill="none" xmlns="http://www.w3.org/2000/svg">
<path d="M22.2085 21.1386L16.3152 24.8341C16.1086 24.9639 15.8712 25.0325 15.6292 25.0325C15.3872 25.0325 15.1499 24.9639 14.9433 24.8341L9.05002 21.1386C8.85701 21.0175 8.69747 20.8475 8.58671 20.6447C8.47595 20.4419 8.41769 20.2132 8.41751 19.9805V13.902C8.41742 13.6645 8.47794 13.4312 8.593 13.2254C8.70806 13.0195 8.87362 12.8484 9.07312 12.7291L14.9664 9.20453C15.1674 9.08401 15.3959 9.02051 15.6285 9.02051C15.8611 9.02051 16.0896 9.08401 16.2906 9.20453L22.1839 12.7291C22.3834 12.8484 22.549 13.0195 22.664 13.2254C22.7791 13.4312 22.8396 13.6645 22.8395 13.902V19.9805C22.8395 20.2132 22.7813 20.442 22.6705 20.6448C22.5597 20.8476 22.4001 21.0176 22.207 21.1386H22.2085Z" fill="#262626"/>
<path d="M20.3397 13.906L16.071 16.6547C15.9761 16.7116 15.8682 16.7416 15.7584 16.7416C15.6485 16.7416 15.5407 16.7116 15.4457 16.6547L10.9778 13.906C10.8816 13.8503 10.8016 13.7692 10.7459 13.6711C10.6902 13.573 10.6609 13.4615 10.6609 13.3478C10.6609 13.2342 10.6902 13.1227 10.7459 13.0246C10.8016 12.9265 10.8816 12.8454 10.9778 12.7896L15.349 10.2447C15.444 10.188 15.5518 10.1582 15.6616 10.1582C15.7714 10.1582 15.8793 10.188 15.9743 10.2447L20.3412 12.8045C20.4343 12.8612 20.5114 12.9418 20.565 13.0386C20.6186 13.1353 20.6468 13.2447 20.6468 13.356C20.6468 13.4674 20.6186 13.5768 20.565 13.6735C20.5114 13.7702 20.4343 13.8509 20.3412 13.9075L20.3397 13.906Z" fill="white"/>
<path d="M14.2458 23.4349L9.65654 20.5554C9.52896 20.4758 9.4235 20.3637 9.35039 20.2298C9.27728 20.0959 9.23898 19.9449 9.2392 19.7913V14.969C9.23925 14.9004 9.25701 14.8331 9.29066 14.774C9.32432 14.7148 9.37265 14.6659 9.4307 14.6323C9.48876 14.5987 9.55444 14.5817 9.62102 14.5828C9.68761 14.584 9.75269 14.6034 9.80961 14.6389L14.5043 17.5853C14.6335 17.6665 14.7402 17.7805 14.8143 17.9164C14.8884 18.0523 14.9274 18.2055 14.9274 18.3613V23.0424C14.9276 23.1244 14.9065 23.205 14.8663 23.2758C14.8262 23.3466 14.7684 23.4051 14.6989 23.4453C14.6294 23.4854 14.5508 23.5058 14.4712 23.5042C14.3915 23.5026 14.3137 23.4792 14.2458 23.4364V23.4349Z" fill="white"/>
<path d="M17.0502 23.4349L21.6395 20.5554C21.7671 20.4758 21.8726 20.3637 21.9457 20.2298C22.0188 20.0959 22.0571 19.9449 22.0569 19.7913V14.969C22.0568 14.9004 22.0391 14.8331 22.0054 14.774C21.9717 14.7148 21.9234 14.6659 21.8654 14.6323C21.8073 14.5987 21.7416 14.5817 21.675 14.5828C21.6085 14.584 21.5434 14.6034 21.4865 14.6389L16.7932 17.5853C16.664 17.6665 16.5573 17.7805 16.4832 17.9164C16.4091 18.0523 16.3702 18.2055 16.3701 18.3613V23.0424C16.3699 23.1244 16.391 23.205 16.4312 23.2758C16.4713 23.3466 16.5291 23.4051 16.5986 23.4453C16.6681 23.4854 16.7467 23.5058 16.8263 23.5042C16.906 23.5026 16.9838 23.4792 17.0517 23.4364L17.0502 23.4349Z" fill="white"/>
<path d="M30.6563 25.9917L24.7645 29.6872C24.5579 29.817 24.3205 29.8856 24.0785 29.8856C23.8365 29.8856 23.5992 29.817 23.3926 29.6872L17.4993 25.9917C17.3063 25.8706 17.1468 25.7005 17.036 25.4978C16.9252 25.295 16.867 25.0663 16.8668 24.8336V18.7507C16.8667 18.5132 16.9272 18.2798 17.0423 18.074C17.1573 17.8682 17.3229 17.697 17.5224 17.5778L23.4157 14.0532C23.6167 13.9326 23.8452 13.8691 24.0778 13.8691C24.3104 13.8691 24.5389 13.9326 24.7399 14.0532L30.6332 17.5778C30.8327 17.697 30.9982 17.8682 31.1133 18.074C31.2284 18.2798 31.2889 18.5132 31.2888 18.7507V24.8292C31.2888 25.0618 31.2306 25.2906 31.1198 25.4934C31.009 25.6962 30.8494 25.8663 30.6563 25.9872V25.9917Z" fill="#262626"/>
<path d="M28.7894 18.7593L24.5178 21.508C24.4229 21.5649 24.315 21.5949 24.2052 21.5949C24.0953 21.5949 23.9874 21.5649 23.8925 21.508L19.4245 18.7653C19.3284 18.7095 19.2484 18.6284 19.1927 18.5303C19.137 18.4322 19.1077 18.3207 19.1077 18.2071C19.1077 18.0935 19.137 17.9819 19.1927 17.8838C19.2484 17.7857 19.3284 17.7046 19.4245 17.6489L23.7972 15.0979C23.8922 15.0413 24.0001 15.0115 24.1099 15.0115C24.2196 15.0115 24.3275 15.0413 24.4225 15.0979L28.7908 17.6489C28.8839 17.7055 28.9611 17.7862 29.0147 17.8829C29.0683 17.9796 29.0965 18.089 29.0965 18.2004C29.0965 18.3117 29.0683 18.4211 29.0147 18.5178C28.9611 18.6146 28.8839 18.6952 28.7908 18.7519L28.7894 18.7593Z" fill="white"/>
<path d="M22.6953 28.2879L18.106 25.4085C17.9784 25.3289 17.873 25.2167 17.7998 25.0828C17.7267 24.949 17.6884 24.7979 17.6887 24.6444V19.822C17.6879 19.7523 17.7055 19.6837 17.7395 19.6235C17.7735 19.5632 17.8227 19.5135 17.8819 19.4797C17.9411 19.4459 18.0081 19.4292 18.0757 19.4313C18.1434 19.4335 18.2092 19.4545 18.2663 19.492L22.961 22.4383C23.0902 22.5195 23.1969 22.6336 23.271 22.7694C23.3451 22.9053 23.384 23.0585 23.3841 23.2143V27.8955C23.3843 27.9775 23.3632 28.058 23.323 28.1289C23.2829 28.1997 23.2251 28.2582 23.1556 28.2983C23.0861 28.3385 23.0075 28.3588 22.9279 28.3572C22.8482 28.3557 22.7704 28.3322 22.7025 28.2894L22.6953 28.2879Z" fill="white"/>
<path d="M25.4997 28.2883L30.089 25.4088C30.2166 25.3292 30.322 25.2171 30.3951 25.0832C30.4683 24.9494 30.5066 24.7983 30.5063 24.6448V19.8224C30.5062 19.7537 30.4883 19.6864 30.4544 19.6272C30.4206 19.568 30.3721 19.5192 30.3138 19.4858C30.2556 19.4523 30.1898 19.4354 30.1231 19.4369C30.0564 19.4383 29.9913 19.4579 29.9345 19.4939L25.2412 22.4387C25.1121 22.5199 25.0053 22.6339 24.9312 22.7698C24.8571 22.9057 24.8182 23.0589 24.8181 23.2147V27.8958C24.8179 27.9779 24.839 28.0584 24.8792 28.1292C24.9194 28.2001 24.9772 28.2586 25.0466 28.2987C25.1161 28.3389 25.1947 28.3592 25.2743 28.3576C25.354 28.3561 25.4318 28.3326 25.4997 28.2898V28.2883Z" fill="white"/>
<path d="M13.7909 26.0895L7.89766 29.7851C7.69107 29.9148 7.45374 29.9835 7.21172 29.9835C6.96971 29.9835 6.73238 29.9148 6.52579 29.7851L0.632506 26.0895C0.439503 25.9685 0.279963 25.7984 0.169202 25.5956C0.0584399 25.3928 0.000175298 25.1641 9.31024e-08 24.9315V18.853C-8.66409e-05 18.6155 0.060429 18.3821 0.175488 18.1763C0.290547 17.9705 0.456113 17.7993 0.655612 17.6801L6.54889 14.1555C6.74991 14.0349 6.97838 13.9714 7.211 13.9714C7.44363 13.9714 7.6721 14.0349 7.87311 14.1555L13.7606 17.6801C13.9601 17.7993 14.1257 17.9705 14.2407 18.1763C14.3558 18.3821 14.4163 18.6155 14.4162 18.853V24.9315C14.4162 25.1641 14.358 25.3929 14.2472 25.5957C14.1364 25.7985 13.9768 25.9686 13.7837 26.0895H13.7909Z" fill="#262626"/>
<path d="M11.9223 18.8575L7.65068 21.6061C7.55577 21.663 7.44789 21.693 7.33804 21.693C7.22819 21.693 7.12031 21.663 7.0254 21.6061L2.55742 18.8634C2.46127 18.8076 2.38125 18.7266 2.32557 18.6285C2.26989 18.5304 2.24054 18.4188 2.24054 18.3052C2.24054 18.1916 2.26989 18.08 2.32557 17.982C2.38125 17.8839 2.46127 17.8028 2.55742 17.747L6.93009 15.1961C7.02509 15.1394 7.13294 15.1096 7.24273 15.1096C7.35252 15.1096 7.46036 15.1394 7.55537 15.1961L11.9237 17.747C12.0168 17.8037 12.094 17.8843 12.1476 17.9811C12.2011 18.0778 12.2293 18.1872 12.2293 18.2985C12.2293 18.4099 12.2011 18.5193 12.1476 18.616C12.094 18.7127 12.0168 18.7934 11.9237 18.85L11.9223 18.8575Z" fill="white"/>
<path d="M5.82973 28.3863L1.24045 25.5068C1.11287 25.4272 1.00742 25.3151 0.934307 25.1812C0.861192 25.0474 0.822891 24.8963 0.823113 24.7428V19.9204C0.822353 19.8507 0.83991 19.7821 0.873927 19.7218C0.907944 19.6616 0.957154 19.6119 1.01635 19.5781C1.07554 19.5443 1.14252 19.5276 1.21019 19.5297C1.27786 19.5319 1.3437 19.5528 1.40074 19.5904L6.09544 22.5367C6.22462 22.6179 6.33137 22.7319 6.40545 22.8678C6.47954 23.0037 6.51849 23.1569 6.51856 23.3127V27.9938C6.51874 28.0758 6.49765 28.1564 6.45749 28.2272C6.41732 28.2981 6.35952 28.3566 6.29005 28.3967C6.22059 28.4369 6.14197 28.4572 6.06232 28.4556C5.98267 28.4541 5.90487 28.4306 5.83695 28.3878L5.82973 28.3863Z" fill="white"/>
<path d="M8.63257 28.3863L13.2218 25.5068C13.3494 25.4272 13.4549 25.3151 13.528 25.1812C13.6011 25.0474 13.6394 24.8963 13.6392 24.7428V19.9204C13.6391 19.8518 13.6214 19.7845 13.5877 19.7254C13.5541 19.6662 13.5057 19.6173 13.4477 19.5837C13.3896 19.5502 13.3239 19.5331 13.2574 19.5342C13.1908 19.5354 13.1257 19.5548 13.0688 19.5904L8.37407 22.5367C8.2449 22.6179 8.13815 22.7319 8.06406 22.8678C7.98998 23.0037 7.95103 23.1569 7.95096 23.3127V27.9938C7.95078 28.0758 7.97186 28.1564 8.01203 28.2272C8.0522 28.2981 8.11 28.3566 8.17946 28.3967C8.24893 28.4369 8.32754 28.4572 8.40719 28.4556C8.48684 28.4541 8.56464 28.4306 8.63257 28.3878V28.3863Z" fill="white"/>
<path d="M22.2402 30.9398L16.3469 34.6354C16.1403 34.7651 15.903 34.8338 15.661 34.8338C15.419 34.8338 15.1816 34.7651 14.975 34.6354L9.08176 30.9398C8.88875 30.8188 8.72921 30.6487 8.61845 30.4459C8.50769 30.2431 8.44942 30.0144 8.44925 29.7818V23.7048C8.44916 23.4673 8.50968 23.2339 8.62474 23.0281C8.7398 22.8223 8.90536 22.6511 9.10486 22.5319L14.9981 19.0073C15.1992 18.8867 15.4276 18.8232 15.6603 18.8232C15.8929 18.8232 16.1213 18.8867 16.3224 19.0073L22.2156 22.5319C22.4151 22.6511 22.5807 22.8223 22.6958 23.0281C22.8108 23.2339 22.8713 23.4673 22.8713 23.7048V29.7833C22.8712 30.0159 22.813 30.2447 22.7022 30.4475C22.5915 30.6503 22.4318 30.8204 22.2387 30.9413L22.2402 30.9398Z" fill="#262626"/>
<path d="M20.3719 23.7111L16.1003 26.4597C16.0054 26.5166 15.8975 26.5466 15.7877 26.5466C15.6778 26.5466 15.5699 26.5166 15.475 26.4597L11.007 23.7111C10.9109 23.6553 10.8309 23.5742 10.7752 23.4761C10.7195 23.378 10.6902 23.2665 10.6902 23.1529C10.6902 23.0393 10.7195 22.9277 10.7752 22.8296C10.8309 22.7315 10.9109 22.6504 11.007 22.5947L15.3797 20.0437C15.4747 19.9871 15.5826 19.9573 15.6923 19.9573C15.8021 19.9573 15.91 19.9871 16.005 20.0437L20.3733 22.5947C20.4664 22.6513 20.5436 22.732 20.5972 22.8287C20.6508 22.9254 20.6789 23.0348 20.6789 23.1462C20.6789 23.2575 20.6508 23.3669 20.5972 23.4636C20.5436 23.5604 20.4664 23.641 20.3733 23.6977L20.3719 23.7111Z" fill="white"/>
<path d="M14.2792 33.2386L9.68988 30.3591C9.56231 30.2795 9.45686 30.1674 9.38374 30.0335C9.31063 29.8997 9.27232 29.7486 9.27255 29.5951V24.7727C9.27178 24.703 9.28934 24.6344 9.32336 24.5741C9.35738 24.5139 9.40659 24.4642 9.46578 24.4304C9.52498 24.3966 9.59195 24.3799 9.65962 24.382C9.72729 24.3842 9.79313 24.4051 9.85018 24.4427L14.5449 27.389C14.6741 27.4702 14.7808 27.5842 14.8549 27.7201C14.929 27.856 14.9679 28.0092 14.968 28.165V32.8461C14.9682 32.9282 14.9471 33.0087 14.9069 33.0795C14.8668 33.1504 14.809 33.2089 14.7395 33.249C14.67 33.2892 14.5914 33.3095 14.5118 33.3079C14.4321 33.3064 14.3543 33.2829 14.2864 33.2401L14.2792 33.2386Z" fill="white"/>
<path d="M17.0818 33.2383L21.6711 30.3589C21.7987 30.2793 21.9042 30.1671 21.9773 30.0333C22.0504 29.8994 22.0887 29.7484 22.0885 29.5948V24.7724C22.0884 24.7039 22.0706 24.6366 22.037 24.5774C22.0033 24.5183 21.955 24.4694 21.897 24.4358C21.8389 24.4022 21.7732 24.3851 21.7066 24.3863C21.6401 24.3874 21.575 24.4068 21.5181 24.4424L16.8234 27.3888C16.6942 27.47 16.5874 27.584 16.5133 27.7199C16.4393 27.8557 16.4003 28.0089 16.4002 28.1647V32.8459C16.4001 32.9279 16.4211 33.0085 16.4613 33.0793C16.5015 33.1501 16.5593 33.2086 16.6287 33.2488C16.6982 33.2889 16.7768 33.3092 16.8565 33.3077C16.9361 33.3061 17.0139 33.2827 17.0818 33.2398V33.2383Z" fill="white"/>
<path d="M22.2085 12.1181L16.3152 15.8136C16.1086 15.9434 15.8712 16.012 15.6292 16.012C15.3872 16.012 15.1499 15.9434 14.9433 15.8136L9.05002 12.1181C8.85701 11.997 8.69747 11.8269 8.58671 11.6242C8.47595 11.4214 8.41769 11.1927 8.41751 10.96V4.88152C8.41742 4.64404 8.47794 4.4107 8.593 4.20486C8.70806 3.99902 8.87362 3.8279 9.07312 3.70863L14.9664 0.184018C15.1674 0.063495 15.3959 0 15.6285 0C15.8611 0 16.0896 0.063495 16.2906 0.184018L22.1839 3.70863C22.3834 3.8279 22.549 3.99902 22.664 4.20486C22.7791 4.4107 22.8396 4.64404 22.8395 4.88152V10.96C22.8395 11.1927 22.7813 11.4214 22.6705 11.6243C22.5597 11.8271 22.4001 11.9971 22.207 12.1181H22.2085Z" fill="#262626"/>
<path d="M20.3397 4.88823L16.071 7.63686C15.9761 7.69379 15.8682 7.72379 15.7584 7.72379C15.6485 7.72379 15.5407 7.69379 15.4457 7.63686L10.9778 4.88823C10.8816 4.83246 10.8016 4.75138 10.7459 4.65329C10.6902 4.5552 10.6609 4.44363 10.6609 4.33002C10.6609 4.21642 10.6902 4.10485 10.7459 4.00676C10.8016 3.90868 10.8816 3.82759 10.9778 3.77182L15.349 1.22685C15.444 1.17021 15.5518 1.14038 15.6616 1.14038C15.7714 1.14038 15.8793 1.17021 15.9743 1.22685L20.3426 3.77777C20.4357 3.83444 20.5129 3.9151 20.5665 4.01181C20.62 4.10852 20.6482 4.21794 20.6482 4.32928C20.6482 4.44062 20.62 4.55004 20.5665 4.64675C20.5129 4.74346 20.4357 4.82413 20.3426 4.88079L20.3397 4.88823Z" fill="white"/>
<path d="M14.2458 14.4149L9.65654 11.5354C9.52896 11.4558 9.4235 11.3436 9.35039 11.2098C9.27728 11.0759 9.23898 10.9249 9.2392 10.7713V5.94895C9.23925 5.88039 9.25701 5.81309 9.29066 5.75393C9.32432 5.69478 9.37265 5.6459 9.4307 5.61231C9.48876 5.57873 9.55444 5.56164 9.62102 5.5628C9.68761 5.56396 9.75269 5.58334 9.80961 5.61893L14.5043 8.56527C14.6335 8.64649 14.7402 8.7605 14.8143 8.89638C14.8884 9.03225 14.9274 9.18544 14.9274 9.34125V14.0224C14.9276 14.1044 14.9065 14.185 14.8663 14.2558C14.8262 14.3266 14.7684 14.3851 14.6989 14.4253C14.6294 14.4654 14.5508 14.4858 14.4712 14.4842C14.3915 14.4826 14.3137 14.4592 14.2458 14.4163V14.4149Z" fill="white"/>
<path d="M17.0502 14.4149L21.6395 11.5354C21.7671 11.4558 21.8726 11.3436 21.9457 11.2098C22.0188 11.0759 22.0571 10.9249 22.0569 10.7713V5.94895C22.0568 5.88039 22.0391 5.81309 22.0054 5.75393C21.9717 5.69478 21.9234 5.6459 21.8654 5.61231C21.8073 5.57873 21.7416 5.56164 21.675 5.5628C21.6085 5.56396 21.5434 5.58334 21.4865 5.61893L16.7932 8.56527C16.664 8.64649 16.5573 8.7605 16.4832 8.89638C16.4091 9.03225 16.3702 9.18544 16.3701 9.34125V14.0224C16.3699 14.1044 16.391 14.185 16.4312 14.2558C16.4713 14.3266 16.5291 14.3851 16.5986 14.4253C16.6681 14.4654 16.7467 14.4858 16.8263 14.4842C16.906 14.4826 16.9838 14.4592 17.0517 14.4163L17.0502 14.4149Z" fill="white"/>
<path d="M30.6563 16.9654L24.7645 20.6669C24.5579 20.7967 24.3205 20.8653 24.0785 20.8653C23.8365 20.8653 23.5992 20.7967 23.3926 20.6669L17.4993 16.9654C17.3063 16.8443 17.1468 16.6743 17.036 16.4715C16.9252 16.2687 16.867 16.04 16.8668 15.8074V9.73479C16.8667 9.49731 16.9272 9.26397 17.0423 9.05813C17.1573 8.85229 17.3229 8.68117 17.5224 8.56191L23.4157 5.03729C23.6167 4.91677 23.8452 4.85327 24.0778 4.85327C24.3104 4.85327 24.5389 4.91677 24.7399 5.03729L30.6332 8.56191C30.8327 8.68117 30.9982 8.85229 31.1133 9.05813C31.2284 9.26397 31.2889 9.49731 31.2888 9.73479V15.8133C31.2878 16.045 31.2291 16.2725 31.1184 16.4742C31.0076 16.6759 30.8486 16.845 30.6563 16.9654Z" fill="#262626"/>
<path d="M28.7894 9.74182L24.5178 12.4905C24.4229 12.5474 24.315 12.5774 24.2052 12.5774C24.0953 12.5774 23.9874 12.5474 23.8925 12.4905L19.4245 9.74182C19.3284 9.68606 19.2484 9.60498 19.1927 9.50689C19.137 9.4088 19.1077 9.29723 19.1077 9.18362C19.1077 9.07002 19.137 8.95845 19.1927 8.86036C19.2484 8.76228 19.3284 8.68119 19.4245 8.62543L23.7972 6.0745C23.8922 6.01786 24.0001 5.98804 24.1099 5.98804C24.2196 5.98804 24.3275 6.01786 24.4225 6.0745L28.7908 8.64178C28.8839 8.69844 28.9611 8.77911 29.0147 8.87582C29.0683 8.97253 29.0965 9.08195 29.0965 9.19329C29.0965 9.30463 29.0683 9.41405 29.0147 9.51076C28.9611 9.60747 28.8839 9.68813 28.7908 9.7448L28.7894 9.74182Z" fill="white"/>
<path d="M22.6953 19.2694L18.106 16.3899C17.9788 16.3106 17.8736 16.1989 17.8006 16.0656C17.7275 15.9323 17.6889 15.7819 17.6887 15.6288V10.8034C17.6879 10.7338 17.7055 10.6652 17.7395 10.6049C17.7735 10.5446 17.8227 10.495 17.8819 10.4612C17.9411 10.4273 18.0081 10.4106 18.0757 10.4128C18.1434 10.4149 18.2092 10.4359 18.2663 10.4734L22.961 13.4198C23.0902 13.501 23.1969 13.615 23.271 13.7509C23.3451 13.8867 23.384 14.0399 23.3841 14.1957V18.8769C23.3843 18.9589 23.3632 19.0395 23.323 19.1103C23.2829 19.1811 23.2251 19.2396 23.1556 19.2798C23.0861 19.3199 23.0075 19.3403 22.9279 19.3387C22.8482 19.3371 22.7704 19.3137 22.7025 19.2708L22.6953 19.2694Z" fill="white"/>
<path d="M25.4997 19.2684L30.089 16.3889C30.2172 16.3103 30.3236 16.1989 30.3977 16.0656C30.4718 15.9322 30.5112 15.7814 30.5121 15.6278V10.8025C30.5121 10.7339 30.4943 10.6666 30.4606 10.6074C30.427 10.5483 30.3787 10.4994 30.3206 10.4658C30.2626 10.4322 30.1969 10.4152 30.1303 10.4163C30.0637 10.4175 29.9986 10.4369 29.9417 10.4724L25.2412 13.4188C25.1121 13.5 25.0053 13.614 24.9312 13.7499C24.8571 13.8858 24.8182 14.039 24.8181 14.1948V18.8759C24.8179 18.9579 24.839 19.0385 24.8792 19.1093C24.9194 19.1801 24.9772 19.2386 25.0466 19.2788C25.1161 19.3189 25.1947 19.3393 25.2743 19.3377C25.354 19.3361 25.4318 19.3127 25.4997 19.2699V19.2684Z" fill="white"/>
<path d="M13.7909 17.07L7.89766 20.7656C7.69107 20.8953 7.45374 20.964 7.21172 20.964C6.96971 20.964 6.73238 20.8953 6.52579 20.7656L0.632506 17.07C0.439503 16.949 0.279963 16.7789 0.169202 16.5761C0.0584399 16.3733 0.000175298 16.1446 9.31024e-08 15.912V9.8305C-8.66409e-05 9.59301 0.060429 9.35967 0.175488 9.15383C0.290547 8.94799 0.456113 8.77687 0.655612 8.6576L6.54889 5.13299C6.74991 5.01247 6.97838 4.94897 7.211 4.94897C7.44363 4.94897 7.6721 5.01247 7.87311 5.13299L13.7606 8.66058C13.9601 8.77984 14.1257 8.95096 14.2407 9.1568C14.3558 9.36264 14.4163 9.59598 14.4162 9.83347V15.912C14.4162 16.1446 14.358 16.3734 14.2472 16.5762C14.1364 16.779 13.9768 16.9491 13.7837 17.07H13.7909Z" fill="#262626"/>
<path d="M11.9223 9.84062L7.65068 12.5892C7.55577 12.6462 7.44789 12.6762 7.33804 12.6762C7.22819 12.6762 7.12031 12.6462 7.0254 12.5892L2.55742 9.84657C2.46127 9.7908 2.38125 9.70971 2.32557 9.61162C2.26989 9.51354 2.24054 9.40197 2.24054 9.28836C2.24054 9.17476 2.26989 9.06319 2.32557 8.9651C2.38125 8.86702 2.46127 8.78593 2.55742 8.73016L6.93009 6.17924C7.02509 6.1226 7.13294 6.09277 7.24273 6.09277C7.35252 6.09277 7.46036 6.1226 7.55537 6.17924L11.9237 8.73016C12.0168 8.78683 12.094 8.8675 12.1476 8.96421C12.2011 9.06092 12.2293 9.17033 12.2293 9.28167C12.2293 9.39301 12.2011 9.50243 12.1476 9.59914C12.094 9.69585 12.0168 9.77652 11.9237 9.83319L11.9223 9.84062Z" fill="white"/>
<path d="M5.82973 19.3675L1.24045 16.4881C1.11287 16.4084 1.00742 16.2963 0.934307 16.1624C0.861192 16.0286 0.822891 15.8775 0.823113 15.724V10.9016C0.822353 10.8319 0.83991 10.7633 0.873927 10.703C0.907944 10.6428 0.957154 10.5931 1.01635 10.5593C1.07554 10.5255 1.14252 10.5088 1.21019 10.5109C1.27786 10.5131 1.3437 10.534 1.40074 10.5716L6.09544 13.5179C6.22286 13.5998 6.32791 13.7137 6.40068 13.849C6.47345 13.9842 6.51153 14.1363 6.51134 14.2909V18.9721C6.51152 19.0541 6.49043 19.1347 6.45026 19.2055C6.4101 19.2763 6.3523 19.3348 6.28283 19.3749C6.21337 19.4151 6.13475 19.4354 6.0551 19.4339C5.97545 19.4323 5.89765 19.4089 5.82973 19.366V19.3675Z" fill="white"/>
<path d="M8.63257 19.3687L13.2218 16.4893C13.3494 16.4097 13.4549 16.2975 13.528 16.1636C13.6011 16.0298 13.6394 15.8787 13.6392 15.7252V10.9028C13.6391 10.8343 13.6214 10.7669 13.5877 10.7078C13.5541 10.6486 13.5057 10.5998 13.4477 10.5662C13.3896 10.5326 13.3239 10.5155 13.2574 10.5167C13.1908 10.5178 13.1257 10.5372 13.0688 10.5728L8.37407 13.5191C8.2449 13.6003 8.13815 13.7144 8.06406 13.8502C7.98998 13.9861 7.95103 14.1393 7.95096 14.2951V18.9763C7.95078 19.0583 7.97186 19.1388 8.01203 19.2097C8.0522 19.2805 8.11 19.339 8.17946 19.3791C8.24893 19.4193 8.32754 19.4396 8.40719 19.438C8.48684 19.4365 8.56464 19.413 8.63257 19.3702V19.3687Z" fill="white"/>
<path d="M23.0344 17.3351L16.2155 18.3861C15.9764 18.4229 15.732 18.3914 15.5092 18.2949C15.2863 18.1984 15.0936 18.0407 14.9519 17.839L10.9085 12.0787C10.7764 11.8899 10.6938 11.6693 10.6685 11.4381C10.6432 11.2069 10.6761 10.9729 10.7641 10.7586L13.0558 5.15727C13.1451 4.93811 13.2888 4.74701 13.4726 4.60322C13.6564 4.45943 13.8738 4.36801 14.1028 4.33818L20.8625 3.44625C21.0932 3.41553 21.3277 3.44833 21.542 3.5413C21.7564 3.63426 21.943 3.78407 22.0828 3.97546L26.1796 9.57679C26.3177 9.76583 26.4053 9.98881 26.4337 10.2235C26.4621 10.4583 26.4302 10.6966 26.3413 10.9147L24.0525 16.5205C23.9646 16.7348 23.8247 16.9223 23.6462 17.065C23.4676 17.2076 23.2565 17.3006 23.033 17.3351H23.0344Z" fill="#EE5535"/>
<path d="M24.0324 9.96134L18.9781 10.6199C18.8695 10.6351 18.759 10.6205 18.6576 10.5777C18.5561 10.5349 18.4675 10.4654 18.4005 10.3761L15.3867 6.23307C15.3192 6.1433 15.276 6.03668 15.2617 5.92411C15.2474 5.81155 15.2623 5.69708 15.3051 5.59243C15.3478 5.48778 15.4168 5.39669 15.505 5.32851C15.5932 5.26032 15.6974 5.21749 15.8069 5.20437L20.8497 4.54732C20.9593 4.53378 21.0704 4.5503 21.1719 4.5952C21.2733 4.6401 21.3614 4.71178 21.4273 4.803L24.4468 8.93859C24.5113 9.02802 24.5521 9.1332 24.565 9.24378C24.578 9.35436 24.5627 9.4665 24.5208 9.56915C24.4788 9.6718 24.4115 9.76142 24.3256 9.82915C24.2397 9.89688 24.1382 9.94039 24.031 9.95539L24.0324 9.96134Z" fill="white"/>
<path d="M14.8306 16.2712L11.6868 11.7833C11.5992 11.6589 11.5443 11.5134 11.5273 11.3608C11.5104 11.2082 11.532 11.0536 11.5901 10.9122L13.4082 6.46737C13.4341 6.40431 13.4759 6.34948 13.5292 6.3085C13.5826 6.26752 13.6455 6.24186 13.7116 6.23415C13.7777 6.22643 13.8446 6.23695 13.9055 6.26461C13.9664 6.29227 14.019 6.33608 14.058 6.39156L17.274 10.982C17.3625 11.1085 17.418 11.2562 17.4352 11.4111C17.4523 11.566 17.4307 11.7228 17.3722 11.8665L15.6075 16.1775C15.5768 16.2532 15.527 16.3191 15.4632 16.3684C15.3995 16.4176 15.3241 16.4484 15.2449 16.4577C15.1657 16.4669 15.0856 16.4542 15.0127 16.4209C14.9399 16.3876 14.877 16.3349 14.8306 16.2682V16.2712Z" fill="white"/>
<path d="M17.4141 17.3909L22.7283 16.5704C22.876 16.5479 23.0155 16.4866 23.1334 16.3923C23.2513 16.2981 23.3436 16.174 23.4012 16.0322L25.2193 11.5874C25.2451 11.5242 25.2542 11.4551 25.2455 11.3871C25.2368 11.319 25.2106 11.2547 25.1698 11.2005C25.1289 11.1463 25.0748 11.1043 25.0129 11.0788C24.9511 11.0533 24.8837 11.0451 24.8178 11.0553L19.3809 11.8952C19.2312 11.9184 19.0898 11.9808 18.9703 12.0763C18.8507 12.1718 18.7569 12.2973 18.6978 12.4407L16.9332 16.7517C16.9023 16.8272 16.8914 16.9098 16.9018 16.991C16.9122 17.0722 16.9434 17.149 16.9922 17.2137C17.0411 17.2784 17.1058 17.3284 17.1796 17.3588C17.2535 17.3892 17.3339 17.3987 17.4126 17.3865L17.4141 17.3909Z" fill="white"/>
<path d="M15.3779 6.22469L18.4234 10.4064C18.4808 10.4836 18.5565 10.5442 18.6432 10.5825C18.73 10.6208 18.8249 10.6354 18.9187 10.6249L24.0221 9.96039C24.1301 9.94593 24.2326 9.90272 24.3195 9.83504C24.4064 9.76737 24.4746 9.67755 24.5174 9.57445C24.5603 9.47136 24.5763 9.35854 24.5639 9.24713C24.5515 9.13572 24.5111 9.02957 24.4467 8.93913L21.4286 4.80801C21.3612 4.71582 21.2713 4.64362 21.1681 4.59871C21.0649 4.55381 20.952 4.5378 20.8408 4.55232L15.8039 5.20046C15.6945 5.21426 15.5906 5.2575 15.5027 5.32582C15.4147 5.39414 15.3458 5.48512 15.3029 5.58959C15.26 5.69405 15.2446 5.80832 15.2583 5.92087C15.2719 6.03341 15.3142 6.14026 15.3808 6.23064L15.3779 6.22469Z" fill="url(#paint0_linear_799_3967)"/>
<path d="M16.6964 8.01368L18.4207 10.4041C18.4773 10.482 18.5529 10.5433 18.6399 10.5817C18.7268 10.62 18.822 10.6341 18.916 10.6226L21.8475 10.2465L20.0987 7.85314C20.0421 7.77558 19.9667 7.71479 19.8799 7.67694C19.7932 7.63908 19.6983 7.6255 19.6048 7.63758L16.6892 8.01368H16.6964Z" fill="url(#paint1_radial_799_3967)"/>
<path d="M46.3403 10.3768H48.6757L47.5396 7.06931H47.5143L46.3403 10.3768ZM46.5296 4.84746H48.5621L51.9328 13.8611H49.875L49.1933 11.8538H45.8227L45.1157 13.8611H43.1211L46.5296 4.84746ZM55.197 8.92505H57.3683C57.8228 8.92505 58.1637 8.82406 58.3909 8.62207C58.6181 8.42009 58.7317 8.09186 58.7317 7.63739C58.7317 7.19976 58.6181 6.88415 58.3909 6.69058C58.1637 6.4886 57.8228 6.3876 57.3683 6.3876H55.197V8.92505ZM53.215 4.84746H58.0753C58.4793 4.84746 58.8411 4.91479 59.161 5.04945C59.4892 5.17569 59.7669 5.35243 59.9942 5.57966C60.2298 5.80689 60.4065 6.072 60.5244 6.37498C60.6506 6.66954 60.7137 6.98935 60.7137 7.33441C60.7137 7.86463 60.6001 8.3233 60.3729 8.71044C60.1541 9.09758 59.7922 9.39214 59.2872 9.59413V9.61938C59.5313 9.68671 59.7333 9.79191 59.8932 9.93498C60.0531 10.0696 60.1835 10.2338 60.2845 10.4273C60.3855 10.6125 60.457 10.8187 60.4991 11.0459C60.5496 11.2731 60.5833 11.5004 60.6001 11.7276C60.6085 11.8707 60.6169 12.039 60.6254 12.2326C60.6338 12.4261 60.6464 12.6239 60.6632 12.8259C60.6885 13.0279 60.7221 13.2215 60.7642 13.4066C60.8147 13.5834 60.8863 13.7348 60.9788 13.8611H58.9968C58.8874 13.5749 58.8201 13.2341 58.7949 12.8385C58.7696 12.443 58.7317 12.0643 58.6812 11.7024C58.6139 11.2311 58.4708 10.886 58.252 10.6672C58.0332 10.4484 57.6755 10.339 57.179 10.339H55.197V13.8611H53.215V4.84746ZM64.6032 6.51384H61.9017V4.84746H69.2868V6.51384H66.5852V13.8611H64.6032V6.51384ZM70.8311 4.84746H72.8131V8.30647H76.4614V4.84746H78.4434V13.8611H76.4614V9.97285H72.8131V13.8611H70.8311V4.84746ZM82.9655 10.3768H85.301L84.1648 7.06931H84.1396L82.9655 10.3768ZM83.1549 4.84746H85.1874L88.558 13.8611H86.5003L85.8186 11.8538H82.4479L81.741 13.8611H79.7464L83.1549 4.84746ZM91.191 10.8692C91.191 11.1721 91.2457 11.4288 91.3551 11.6392C91.4645 11.8496 91.6076 12.0222 91.7844 12.1568C91.9695 12.2831 92.1841 12.3799 92.4282 12.4472C92.6722 12.5061 92.9247 12.5356 93.1856 12.5356C93.3624 12.5356 93.5517 12.5229 93.7537 12.4977C93.9557 12.464 94.1451 12.4051 94.3218 12.3209C94.4985 12.2368 94.6458 12.1232 94.7636 11.9801C94.8815 11.8286 94.9404 11.6392 94.9404 11.412C94.9404 11.1679 94.8604 10.9702 94.7005 10.8187C94.549 10.6672 94.347 10.5409 94.0946 10.4399C93.8421 10.339 93.5559 10.2506 93.2361 10.1748C92.9163 10.0991 92.5923 10.0149 92.2641 9.92236C91.9274 9.8382 91.5992 9.7372 91.2794 9.61938C90.9596 9.49314 90.6734 9.33323 90.4209 9.13966C90.1685 8.94609 89.9623 8.70623 89.8024 8.42009C89.6509 8.12552 89.5751 7.77205 89.5751 7.35966C89.5751 6.89678 89.6719 6.49701 89.8655 6.16037C90.0675 5.81531 90.3284 5.52916 90.6482 5.30193C90.968 5.07469 91.3299 4.90637 91.7339 4.79696C92.1378 4.68756 92.5418 4.63285 92.9458 4.63285C93.4171 4.63285 93.8673 4.68756 94.2966 4.79696C94.7342 4.89796 95.1213 5.06628 95.458 5.30193C95.7946 5.53758 96.0597 5.84056 96.2533 6.21087C96.4553 6.57276 96.5563 7.0146 96.5563 7.5364H94.6374C94.6206 7.26708 94.5617 7.04406 94.4607 6.86732C94.3681 6.69058 94.2418 6.55172 94.0819 6.45072C93.922 6.34973 93.7369 6.27819 93.5265 6.23611C93.3245 6.19403 93.1015 6.17299 92.8574 6.17299C92.6975 6.17299 92.5376 6.18983 92.3777 6.22349C92.2178 6.25715 92.0705 6.31607 91.9358 6.40023C91.8096 6.48439 91.7044 6.58959 91.6202 6.71583C91.5361 6.84207 91.494 7.00198 91.494 7.19555C91.494 7.37229 91.5277 7.51536 91.595 7.62477C91.6623 7.73418 91.7928 7.83517 91.9863 7.92775C92.1883 8.02032 92.4618 8.1129 92.8069 8.20548C93.1604 8.29805 93.6191 8.41588 94.1829 8.55895C94.3513 8.59262 94.5827 8.65574 94.8773 8.74831C95.1802 8.83248 95.479 8.97134 95.7736 9.16491C96.0681 9.35848 96.3206 9.61938 96.531 9.94761C96.7498 10.2674 96.8592 10.6798 96.8592 11.1848C96.8592 11.5972 96.7793 11.9801 96.6194 12.3336C96.4595 12.687 96.2196 12.9942 95.8998 13.2551C95.5884 13.5076 95.1971 13.7054 94.7258 13.8485C94.2629 13.9915 93.7243 14.0631 93.1099 14.0631C92.6133 14.0631 92.1294 13.9999 91.6581 13.8737C91.1952 13.7559 90.7828 13.5665 90.4209 13.3056C90.0675 13.0447 89.7855 12.7123 89.5751 12.3083C89.3647 11.9043 89.2637 11.4246 89.2722 10.8692H91.191ZM98.5435 4.84746H100.525V8.30647H104.174V4.84746H106.156V13.8611H104.174V9.97285H100.525V13.8611H98.5435V4.84746ZM110.678 10.3768H113.013L111.877 7.06931H111.852L110.678 10.3768ZM110.867 4.84746H112.9L116.27 13.8611H114.213L113.531 11.8538H110.16L109.453 13.8611H107.459L110.867 4.84746ZM118.903 10.8692C118.903 11.1721 118.958 11.4288 119.068 11.6392C119.177 11.8496 119.32 12.0222 119.497 12.1568C119.682 12.2831 119.897 12.3799 120.141 12.4472C120.385 12.5061 120.637 12.5356 120.898 12.5356C121.075 12.5356 121.264 12.5229 121.466 12.4977C121.668 12.464 121.857 12.4051 122.034 12.3209C122.211 12.2368 122.358 12.1232 122.476 11.9801C122.594 11.8286 122.653 11.6392 122.653 11.412C122.653 11.1679 122.573 10.9702 122.413 10.8187C122.261 10.6672 122.059 10.5409 121.807 10.4399C121.554 10.339 121.268 10.2506 120.949 10.1748C120.629 10.0991 120.305 10.0149 119.976 9.92236C119.64 9.8382 119.312 9.7372 118.992 9.61938C118.672 9.49314 118.386 9.33323 118.133 9.13966C117.881 8.94609 117.675 8.70623 117.515 8.42009C117.363 8.12552 117.288 7.77205 117.288 7.35966C117.288 6.89678 117.384 6.49701 117.578 6.16037C117.78 5.81531 118.041 5.52916 118.361 5.30193C118.68 5.07469 119.042 4.90637 119.446 4.79696C119.85 4.68756 120.254 4.63285 120.658 4.63285C121.129 4.63285 121.58 4.68756 122.009 4.79696C122.447 4.89796 122.834 5.06628 123.17 5.30193C123.507 5.53758 123.772 5.84056 123.966 6.21087C124.168 6.57276 124.269 7.0146 124.269 7.5364H122.35C122.333 7.26708 122.274 7.04406 122.173 6.86732C122.081 6.69058 121.954 6.55172 121.794 6.45072C121.634 6.34973 121.449 6.27819 121.239 6.23611C121.037 6.19403 120.814 6.17299 120.57 6.17299C120.41 6.17299 120.25 6.18983 120.09 6.22349C119.93 6.25715 119.783 6.31607 119.648 6.40023C119.522 6.48439 119.417 6.58959 119.333 6.71583C119.248 6.84207 119.206 7.00198 119.206 7.19555C119.206 7.37229 119.24 7.51536 119.307 7.62477C119.375 7.73418 119.505 7.83517 119.699 7.92775C119.901 8.02032 120.174 8.1129 120.519 8.20548C120.873 8.29805 121.331 8.41588 121.895 8.55895C122.064 8.59262 122.295 8.65574 122.59 8.74831C122.893 8.83248 123.191 8.97134 123.486 9.16491C123.781 9.35848 124.033 9.61938 124.243 9.94761C124.462 10.2674 124.572 10.6798 124.572 11.1848C124.572 11.5972 124.492 11.9801 124.332 12.3336C124.172 12.687 123.932 12.9942 123.612 13.2551C123.301 13.5076 122.909 13.7054 122.438 13.8485C121.975 13.9915 121.437 14.0631 120.822 14.0631C120.326 14.0631 119.842 13.9999 119.371 13.8737C118.908 13.7559 118.495 13.5665 118.133 13.3056C117.78 13.0447 117.498 12.7123 117.288 12.3083C117.077 11.9043 116.976 11.4246 116.985 10.8692H118.903ZM128.251 6.51384H125.549V4.84746H132.934V6.51384H130.232V13.8611H128.251V6.51384ZM136.46 8.92505H138.632C139.086 8.92505 139.427 8.82406 139.654 8.62207C139.881 8.42009 139.995 8.09186 139.995 7.63739C139.995 7.19976 139.881 6.88415 139.654 6.69058C139.427 6.4886 139.086 6.3876 138.632 6.3876H136.46V8.92505ZM134.478 4.84746H139.339C139.743 4.84746 140.104 4.91479 140.424 5.04945C140.753 5.17569 141.03 5.35243 141.257 5.57966C141.493 5.80689 141.67 6.072 141.788 6.37498C141.914 6.66954 141.977 6.98935 141.977 7.33441C141.977 7.86463 141.863 8.3233 141.636 8.71044C141.417 9.09758 141.056 9.39214 140.551 9.59413V9.61938C140.795 9.68671 140.997 9.79191 141.157 9.93498C141.316 10.0696 141.447 10.2338 141.548 10.4273C141.649 10.6125 141.72 10.8187 141.762 11.0459C141.813 11.2731 141.847 11.5004 141.863 11.7276C141.872 11.8707 141.88 12.039 141.889 12.2326C141.897 12.4261 141.91 12.6239 141.927 12.8259C141.952 13.0279 141.985 13.2215 142.028 13.4066C142.078 13.5834 142.15 13.7348 142.242 13.8611H140.26C140.151 13.5749 140.083 13.2341 140.058 12.8385C140.033 12.443 139.995 12.0643 139.945 11.7024C139.877 11.2311 139.734 10.886 139.515 10.6672C139.297 10.4484 138.939 10.339 138.442 10.339H136.46V13.8611H134.478V4.84746ZM146.366 10.3768H148.702L147.566 7.06931H147.54L146.366 10.3768ZM146.556 4.84746H148.588L151.959 13.8611H149.901L149.219 11.8538H145.849L145.142 13.8611H143.147L146.556 4.84746Z" fill="#262626"/>
<path d="M43.9442 20.7639H45.1702V26.3396H43.9442V20.7639ZM51.0108 20.7639H52.229L54.5561 24.5045H54.5717V20.7639H55.7196V26.3396H54.4936L52.1743 22.6069H52.1587V26.3396H51.0108V20.7639ZM62.7963 21.7947H61.1251V20.7639H65.6934V21.7947H64.0223V26.3396H62.7963V21.7947ZM71.0998 20.7639H75.2699V21.7947H72.3259V22.9895H75.0278V23.9422H72.3259V25.3088H75.3323V26.3396H71.0998V20.7639ZM80.927 20.7639H82.1531V25.3088H84.8706V26.3396H80.927V20.7639ZM90.3196 20.7639H91.5456V25.3088H94.2631V26.3396H90.3196V20.7639ZM99.7121 20.7639H100.938V26.3396H99.7121V20.7639ZM110.808 25.7071C110.589 25.9882 110.347 26.186 110.082 26.3006C109.816 26.4099 109.548 26.4645 109.278 26.4645C108.851 26.4645 108.465 26.3917 108.122 26.2459C107.783 26.0949 107.497 25.8893 107.263 25.629C107.029 25.3687 106.849 25.0641 106.724 24.7153C106.599 24.3613 106.537 23.9813 106.537 23.5752C106.537 23.1587 106.599 22.7735 106.724 22.4195C106.849 22.0602 107.029 21.7479 107.263 21.4824C107.497 21.2169 107.783 21.0086 108.122 20.8576C108.465 20.7067 108.851 20.6312 109.278 20.6312C109.564 20.6312 109.84 20.6754 110.105 20.7639C110.376 20.8472 110.618 20.9722 110.832 21.1388C111.05 21.3054 111.23 21.511 111.37 21.7557C111.511 22.0004 111.597 22.2815 111.628 22.5991H110.457C110.384 22.2867 110.243 22.0524 110.035 21.8963C109.827 21.7401 109.574 21.662 109.278 21.662C109.002 21.662 108.767 21.7166 108.575 21.826C108.382 21.9301 108.226 22.0733 108.106 22.2555C107.986 22.4325 107.898 22.6355 107.841 22.8646C107.789 23.0936 107.763 23.3305 107.763 23.5752C107.763 23.8095 107.789 24.0385 107.841 24.2624C107.898 24.481 107.986 24.6789 108.106 24.8559C108.226 25.0329 108.382 25.1761 108.575 25.2854C108.767 25.3895 109.002 25.4416 109.278 25.4416C109.684 25.4416 109.996 25.34 110.215 25.137C110.438 24.9288 110.569 24.6294 110.605 24.239H109.371V23.3253H111.714V26.3396H110.933L110.808 25.7071ZM117.468 20.7639H121.638V21.7947H118.694V22.9895H121.396V23.9422H118.694V25.3088H121.7V26.3396H117.468V20.7639ZM127.295 20.7639H128.513L130.84 24.5045H130.856V20.7639H132.004V26.3396H130.778L128.458 22.6069H128.443V26.3396H127.295V20.7639ZM141.564 22.6381C141.543 22.4975 141.496 22.37 141.423 22.2555C141.35 22.1357 141.259 22.0316 141.15 21.9431C141.04 21.8546 140.915 21.7869 140.775 21.7401C140.639 21.688 140.496 21.662 140.345 21.662C140.069 21.662 139.835 21.7166 139.643 21.826C139.45 21.9301 139.294 22.0733 139.174 22.2555C139.054 22.4325 138.966 22.6355 138.908 22.8646C138.856 23.0936 138.83 23.3305 138.83 23.5752C138.83 23.8095 138.856 24.0385 138.908 24.2624C138.966 24.481 139.054 24.6789 139.174 24.8559C139.294 25.0329 139.45 25.1761 139.643 25.2854C139.835 25.3895 140.069 25.4416 140.345 25.4416C140.72 25.4416 141.012 25.327 141.22 25.098C141.433 24.8689 141.564 24.5669 141.61 24.1921H142.797C142.766 24.5409 142.685 24.8559 142.555 25.137C142.425 25.4181 142.253 25.6576 142.04 25.8554C141.826 26.0533 141.577 26.2042 141.29 26.3084C141.004 26.4125 140.689 26.4645 140.345 26.4645C139.918 26.4645 139.533 26.3917 139.19 26.2459C138.851 26.0949 138.565 25.8893 138.331 25.629C138.096 25.3687 137.917 25.0641 137.792 24.7153C137.667 24.3613 137.604 23.9813 137.604 23.5752C137.604 23.1587 137.667 22.7735 137.792 22.4195C137.917 22.0602 138.096 21.7479 138.331 21.4824C138.565 21.2169 138.851 21.0086 139.19 20.8576C139.533 20.7067 139.918 20.6312 140.345 20.6312C140.652 20.6312 140.941 20.6754 141.212 20.7639C141.488 20.8524 141.733 20.9826 141.946 21.1544C142.165 21.321 142.344 21.5292 142.485 21.7791C142.626 22.029 142.714 22.3153 142.751 22.6381H141.564ZM148.398 20.7639H152.568V21.7947H149.624V22.9895H152.326V23.9422H149.624V25.3088H152.631V26.3396H148.398V20.7639Z" fill="#EE5535"/>
<rect x="36.7192" y="2.60913" width="0.895593" height="24.6831" fill="#262626"/>
<defs>
<linearGradient id="paint0_linear_799_3967" x1="22.2404" y1="4.31044" x2="19.6357" y2="10.2792" gradientUnits="userSpaceOnUse">
<stop offset="0.07" stop-color="#EE5535"/>
<stop offset="1" stop-color="#FFBB98"/>
</linearGradient>
<radialGradient id="paint1_radial_799_3967" cx="0" cy="0" r="1" gradientUnits="userSpaceOnUse" gradientTransform="translate(15.5571 13.7874) scale(8.92151 9.18391)">
<stop stop-color="white"/>
<stop offset="1" stop-color="#F05403"/>
</radialGradient>
</defs>
</svg>
